<svg xmlns="http://www.w3.org/2000/svg" xmlns:xlink="http://www.w3.org/1999/xlink" version="1.1" x="0px" y="0px" viewBox="0 0 96 120" style="enable-background:new 0 0 96 96;" xml:space="preserve"><path d="M46.5,18C30.8,18,18,30.8,18,46.5S30.8,75,46.5,75S75,62.2,75,46.5S62.2,18,46.5,18z M51,21.4c6,1.1,11.2,4.2,15,8.7  l-13.5,7.8c-0.5-0.3-1-0.6-1.5-0.8V21.4z M54,46.5c0,4.1-3.4,7.5-7.5,7.5c-4.1,0-7.5-3.4-7.5-7.5c0-4.1,3.4-7.5,7.5-7.5  C50.6,39,54,42.4,54,46.5z M45,21c0.5,0,1,0,1.5,0s1,0,1.5,0v15.1C47.5,36,47,36,46.5,36s-1,0-1.5,0.1V21z M42,21.4V37  c-0.5,0.2-1,0.5-1.5,0.8L27,30.1C30.8,25.6,36,22.5,42,21.4z M25.2,32.5l13,7.5c-0.6,0.8-1.1,1.7-1.5,2.6l-13-7.5  C24.2,34.2,24.7,33.3,25.2,32.5z M21,46.5c0-3,0.5-6,1.5-8.7L36,45.7c0,0.3,0,0.6,0,0.8s0,0.6,0,0.8l-13.5,7.8  C21.5,52.5,21,49.5,21,46.5z M25.2,60.5c-0.5-0.8-1.1-1.7-1.5-2.6l13-7.5c0.4,0.9,0.9,1.8,1.5,2.6L25.2,60.5z M42,71.6  c-6-1.1-11.2-4.2-15-8.7l13.5-7.8c0.5,0.3,1,0.6,1.5,0.8V71.6z M48,72c-0.5,0-1,0-1.5,0s-1,0-1.5,0V56.9c0.5,0.1,1,0.1,1.5,0.1  s1,0,1.5-0.1V72z M51,71.6V56c0.5-0.2,1-0.5,1.5-0.8L66,62.9C62.2,67.4,57,70.5,51,71.6z M67.8,60.5l-13-7.5  c0.6-0.8,1.1-1.7,1.5-2.6l13,7.5C68.8,58.8,68.3,59.7,67.8,60.5z M72,46.5c0,3-0.5,6-1.5,8.7L57,47.3c0-0.3,0-0.6,0-0.8s0-0.6,0-0.8  l13.5-7.8C71.5,40.5,72,43.5,72,46.5z M69.3,35.1l-13,7.5c-0.4-0.9-0.9-1.8-1.5-2.6l13-7.5C68.3,33.3,68.8,34.2,69.3,35.1z"/><path d="M93,48v-3c0-1-0.5-1.9-1.3-2.5c0.7-0.7,1-1.6,0.8-2.6L92,37c-0.2-1-0.8-1.8-1.7-2.2c0.5-0.8,0.7-1.8,0.4-2.7l-1-2.8  c-0.3-1-1.1-1.6-2-1.9c0.4-0.9,0.4-1.9-0.1-2.8L86,22c-0.5-0.9-1.4-1.4-2.3-1.5c0.2-0.9,0.1-1.9-0.6-2.7l-1.9-2.3  c-0.7-0.8-1.6-1.1-2.6-1.1c0.1-0.9-0.3-1.9-1.1-2.6l-2.3-1.9c-0.8-0.7-1.8-0.8-2.7-0.6C72.5,8.4,71.9,7.5,71,7l-2.6-1.5  C67.6,5,66.5,5,65.7,5.4c-0.2-0.9-0.9-1.7-1.9-2l-2.8-1c-1-0.3-2-0.2-2.7,0.4C57.8,1.8,57,1.1,56.1,1l-3-0.5c-1-0.2-2,0.2-2.6,0.8  C49.9,0.5,49,0,48,0h-3c-1,0-1.9,0.5-2.5,1.3c-0.7-0.7-1.6-1-2.6-0.8L37,1c-1,0.2-1.8,0.8-2.2,1.7C34,2.1,33,1.9,32,2.3l-2.8,1  c-1,0.3-1.6,1.1-1.9,2C26.5,5,25.4,5,24.6,5.5L22,7c-0.9,0.5-1.4,1.4-1.5,2.3c-0.9-0.2-1.9-0.1-2.7,0.6l-2.3,1.9  c-0.8,0.7-1.1,1.6-1.1,2.6c-0.9-0.1-1.9,0.3-2.6,1.1l-1.9,2.3c-0.7,0.8-0.8,1.8-0.6,2.7C8.4,20.5,7.5,21.1,7,22l-1.5,2.6  C5,25.4,5,26.5,5.4,27.3c-0.9,0.2-1.7,0.9-2,1.9l-1,2.8c-0.3,1-0.2,2,0.4,2.7C1.8,35.2,1.1,36,1,36.9l-0.5,3c-0.2,1,0.2,2,0.8,2.6  C0.5,43.1,0,44,0,45v3c0,1,0.5,1.9,1.3,2.5c-0.7,0.7-1,1.6-0.8,2.6L1,56c0.2,1,0.8,1.8,1.7,2.2C2.1,59,1.9,60,2.3,61l1,2.8  c0.3,1,1.1,1.6,2,1.9C5,66.5,5,67.6,5.5,68.4L7,71c0.5,0.9,1.4,1.4,2.3,1.5c-0.2,0.9-0.1,1.9,0.6,2.7l1.9,2.3  c0.7,0.8,1.6,1.1,2.6,1.1c-0.1,0.9,0.3,1.9,1.1,2.6l2.3,1.9c0.8,0.7,1.8,0.8,2.7,0.6c0.1,0.9,0.6,1.8,1.5,2.3l2.6,1.5  c0.9,0.5,1.9,0.5,2.8,0.1c0.2,0.9,0.9,1.7,1.9,2l2.8,1c1,0.3,2,0.2,2.7-0.4c0.4,0.9,1.2,1.5,2.2,1.7l3,0.5c1,0.2,2-0.2,2.6-0.8  C43.1,92.5,44,93,45,93h3c1,0,1.9-0.5,2.5-1.3c0.7,0.7,1.6,1,2.6,0.8l3-0.5c1-0.2,1.8-0.8,2.2-1.7c0.8,0.5,1.8,0.7,2.7,0.4l2.8-1  c1-0.3,1.6-1.1,1.9-2c0.9,0.4,1.9,0.4,2.8-0.1L71,86c0.9-0.5,1.4-1.4,1.5-2.3c0.9,0.2,1.9,0.1,2.7-0.6l2.3-1.9  c0.8-0.7,1.1-1.6,1.1-2.6c0.9,0.1,1.9-0.3,2.6-1.1l1.9-2.3c0.7-0.8,0.8-1.8,0.6-2.7c0.9-0.1,1.8-0.6,2.3-1.5l1.5-2.6  c0.5-0.9,0.5-1.9,0.1-2.8c0.9-0.2,1.7-0.9,2-1.9l1-2.8c0.3-1,0.2-2-0.4-2.7c0.9-0.4,1.5-1.2,1.7-2.2l0.5-3c0.2-1-0.2-2-0.8-2.6  C92.5,49.9,93,49,93,48z M46.5,90C22.5,90,3,70.5,3,46.5S22.5,3,46.5,3S90,22.5,90,46.5S70.5,90,46.5,90z"/><path d="M46.5,12C27.4,12,12,27.4,12,46.5S27.4,81,46.5,81S81,65.6,81,46.5S65.6,12,46.5,12z M46.5,78C29.1,78,15,63.9,15,46.5  S29.1,15,46.5,15S78,29.1,78,46.5S63.9,78,46.5,78z"/><text x="0" y="111" fill="#000000" font-size="5px" font-weight="bold" font-family="'Helvetica Neue', Helvetica, Arial-Unicode, Arial, Sans-serif">Created by Stanislav Levin</text><text x="0" y="116" fill="#000000" font-size="5px" font-weight="bold" font-family="'Helvetica Neue', Helvetica, Arial-Unicode, Arial, Sans-serif">from the Noun Project</text></svg>