<svg xmlns="http://www.w3.org/2000/svg" xmlns:xlink="http://www.w3.org/1999/xlink" version="1.1" x="0px" y="0px" viewBox="0 0 64 80" style="enable-background:new 0 0 64 64;" xml:space="preserve"><rect x="14.48" y="20.1" width="2" height="2.55"/><rect x="17.73" y="20.1" width="2" height="2.55"/><rect x="20.97" y="20.1" width="2" height="2.55"/><rect x="16.1" y="23.65" width="2" height="2.55"/><rect x="19.35" y="23.65" width="2" height="2.55"/><rect x="17.73" y="26.68" width="2" height="2.55"/><path d="M24.38,18.53c0-2.81-2.06-5.14-4.75-5.57c-0.44-2.53-2.67-4.18-5.85-4.18c-3.55,0-5.94,2.05-5.94,5.11l0.17,23.62h2  L9.85,13.88c0-2.88,3.01-3.1,3.94-3.1c0.82,0,3.27,0.18,3.82,2.21c-2.58,0.52-4.54,2.81-4.54,5.54v1h11.31V18.53z M15.21,17.53  c0.44-1.53,1.85-2.65,3.51-2.65s3.08,1.12,3.51,2.65H15.21z"/><path d="M6.08,45.11c0,5.57,4.53,10.1,10.1,10.1h31.63c5.57,0,10.1-4.53,10.1-10.1V41.1H6.08V45.11z"/><polygon points="9.04,38.97 6.08,38.97 6.08,40.1 57.92,40.1 57.92,38.97 22.22,38.97 "/><text x="0" y="79" fill="#000000" font-size="5px" font-weight="bold" font-family="'Helvetica Neue', Helvetica, Arial-Unicode, Arial, Sans-serif">Created by fix project</text><text x="0" y="84" fill="#000000" font-size="5px" font-weight="bold" font-family="'Helvetica Neue', Helvetica, Arial-Unicode, Arial, Sans-serif">from the Noun Project</text></svg>