<svg xmlns="http://www.w3.org/2000/svg" xmlns:xlink="http://www.w3.org/1999/xlink" version="1.1" x="0px" y="0px" viewBox="0 0 100 125" enable-background="new 0 0 100 100" xml:space="preserve"><path d="M96.668,77.903l-1.7-7.875c-0.012-0.056-0.047-0.099-0.066-0.151c0.141-0.323,0.221-0.677,0.221-1.051V53.681  c0-1.456-1.185-2.64-2.642-2.64h-2.368c-0.15-2.192-2.448-4.34-4.991-6.064v-12.66c0-7.519-3.76-11.659-10.589-11.659H25.586  c-6.827,0-10.587,4.141-10.587,11.659v12.729c-2.542,1.682-4.841,3.796-4.992,5.995h-2.36c-1.457,0-2.642,1.184-2.642,2.64v15.145  c0,0.313,0.064,0.609,0.165,0.888c-0.055,0.1-0.112,0.198-0.138,0.315l-1.7,7.875c-0.139,0.641,0.269,1.273,0.91,1.411  c0.084,0.019,0.169,0.027,0.251,0.027c0.547,0,1.04-0.381,1.16-0.938l1.508-6.988c0.158,0.03,0.319,0.049,0.485,0.049h84.834  c0.124,0,0.242-0.02,0.36-0.036l1.505,6.974c0.12,0.557,0.612,0.938,1.16,0.938c0.083,0,0.167-0.009,0.251-0.027  C96.399,79.176,96.807,78.544,96.668,77.903z M17.374,32.317c0-6.247,2.686-9.284,8.212-9.284h48.947  c5.527,0,8.214,3.037,8.214,9.284V43.51c-1.442-0.818-2.765-1.457-3.611-1.843v-0.829c0-0.864-1.29-6.108-3.581-7.171  c-1.962-0.909-6.604-1.451-9.958-1.451c-3.354,0-7.996,0.542-9.959,1.452c-2.29,1.063-3.58,6.307-3.58,7.171v0.547l-3.946,0.014  v-0.561c0-0.864-1.291-6.109-3.583-7.171c-1.96-0.908-6.603-1.451-9.957-1.451c-3.354,0-7.996,0.542-9.959,1.452  c-2.29,1.063-3.581,6.307-3.581,7.171v0.976c-0.835,0.366-2.183,0.99-3.659,1.804V32.317z M54.432,41.376v-0.525  c0.048-0.923,1.344-4.629,2.205-5.029c1.258-0.583,5.247-1.231,8.96-1.231s7.702,0.649,8.959,1.231  c0.862,0.4,2.158,4.106,2.205,5.017v0.46L54.432,41.376z M23.407,41.486v-0.635c0.047-0.923,1.343-4.629,2.205-5.029  c1.258-0.583,5.247-1.231,8.96-1.231c3.714,0,7.702,0.649,8.958,1.231c0.863,0.4,2.159,4.106,2.207,5.016v0.569L23.407,41.486z   M22.271,43.865l55.529-0.196c3.962,1.764,9.549,5.174,9.918,7.372H12.402C12.763,48.841,18.225,45.598,22.271,43.865z   M7.647,53.416h84.834c0.145,0,0.267,0.121,0.267,0.265v3.752c-0.088-0.021-0.172-0.054-0.267-0.054H7.647  c-0.095,0-0.178,0.033-0.267,0.054v-3.752C7.38,53.537,7.502,53.416,7.647,53.416z M7.647,69.091c-0.145,0-0.267-0.122-0.267-0.266  V59.7c0.089,0.021,0.172,0.054,0.267,0.054h84.834c0.095,0,0.179-0.033,0.267-0.054v9.125c0,0.144-0.123,0.266-0.267,0.266H7.647z"/><text x="0" y="115" fill="#000000" font-size="5px" font-weight="bold" font-family="'Helvetica Neue', Helvetica, Arial-Unicode, Arial, Sans-serif">Created by Imogen Oh</text><text x="0" y="120" fill="#000000" font-size="5px" font-weight="bold" font-family="'Helvetica Neue', Helvetica, Arial-Unicode, Arial, Sans-serif">from the Noun Project</text></svg>