<svg xmlns="http://www.w3.org/2000/svg" xmlns:xlink="http://www.w3.org/1999/xlink" version="1.1" x="0px" y="0px" viewBox="0 0 100 125" style="enable-background:new 0 0 100 100;" xml:space="preserve"><path d="M32.134,90H42.36c1.222,0,2.215-0.993,2.215-2.215V56.031c0-1.222-0.993-2.215-2.215-2.215h-0.154  c-0.119,0-0.216-0.097-0.216-0.216v-0.938c0-0.118,0.097-0.215,0.216-0.215h0.154c1.222,0,2.215-0.994,2.215-2.216v-1.312  c0-1.222-0.993-2.216-2.215-2.216h-2.783V18.395c0.586-0.593,0.95-1.407,0.95-2.305v-4.797c0-0.553-0.447-1-1-1h-4.561  c-0.553,0-1,0.447-1,1v4.797c0,0.898,0.364,1.712,0.95,2.305v28.308h-2.783c-1.222,0-2.215,0.994-2.215,2.216v1.312  c0,1.222,0.993,2.216,2.215,2.216h0.154c0.119,0,0.216,0.097,0.216,0.215v0.938c0,0.119-0.097,0.216-0.216,0.216h-0.154  c-1.222,0-2.215,0.993-2.215,2.215v31.754C29.919,89.007,30.912,90,32.134,90z M38.527,16.09c0,0.706-0.574,1.281-1.28,1.281  s-1.28-0.575-1.28-1.281v-3.797h2.561V16.09z M37.577,46.703h-0.66V19.338c0.11,0.011,0.217,0.033,0.33,0.033s0.22-0.022,0.33-0.033  V46.703z M42.36,88H32.134c-0.118,0-0.215-0.097-0.215-0.215V56.031c0-0.118,0.097-0.215,0.215-0.215h0.154  c1.222,0,2.216-0.994,2.216-2.216v-0.938c0-1.222-0.994-2.215-2.216-2.215h-0.154c-0.118,0-0.215-0.097-0.215-0.216v-1.312  c0-0.119,0.097-0.216,0.215-0.216H42.36c0.118,0,0.215,0.097,0.215,0.216v1.312c0,0.119-0.097,0.216-0.215,0.216h-0.154  c-1.222,0-2.216,0.993-2.216,2.215v0.938c0,1.222,0.994,2.216,2.216,2.216h0.154c0.118,0,0.215,0.097,0.215,0.215v31.754  C42.575,87.903,42.479,88,42.36,88z"/><path d="M35.157,59.15c0.553,0,1,0.447,1,1v23.834c0,0.553-0.447,1-1,1s-1-0.447-1-1V60.15C34.157,59.598,34.605,59.15,35.157,59.15  z"/><path d="M39.337,59.15c0.553,0,1,0.447,1,1v23.834c0,0.553-0.447,1-1,1s-1-0.447-1-1V60.15C38.337,59.598,38.784,59.15,39.337,59.15  z"/><path d="M68.46,89.584c0.553,0,1-0.447,1-1V11.293c0-0.553-0.447-1-1-1H52.535c-0.553,0-1,0.447-1,1v77.291c0,0.553,0.447,1,1,1  H68.46z M67.46,87.584H53.535v-5.522h4.533c0.553,0,1-0.447,1-1s-0.447-1-1-1h-4.533v-3.23h4.533c0.553,0,1-0.447,1-1s-0.447-1-1-1  h-4.533v-3.23h4.533c0.553,0,1-0.447,1-1s-0.447-1-1-1h-4.533v-3.229h4.533c0.553,0,1-0.447,1-1s-0.447-1-1-1h-4.533v-3.23h4.533  c0.553,0,1-0.447,1-1s-0.447-1-1-1h-4.533v-3.23h4.533c0.553,0,1-0.447,1-1s-0.447-1-1-1h-4.533v-3.229h4.533c0.553,0,1-0.447,1-1  s-0.447-1-1-1h-4.533v-3.23h4.533c0.553,0,1-0.447,1-1s-0.447-1-1-1h-4.533v-3.23h4.533c0.553,0,1-0.447,1-1s-0.447-1-1-1h-4.533  V34.99h4.533c0.553,0,1-0.447,1-1s-0.447-1-1-1h-4.533v-3.23h4.533c0.553,0,1-0.447,1-1s-0.447-1-1-1h-4.533v-3.23h4.533  c0.553,0,1-0.447,1-1s-0.447-1-1-1h-4.533V19.3h4.533c0.553,0,1-0.447,1-1s-0.447-1-1-1h-4.533v-5.007H67.46V87.584z"/><text x="0" y="115" fill="#000000" font-size="5px" font-weight="bold" font-family="'Helvetica Neue', Helvetica, Arial-Unicode, Arial, Sans-serif">Created by Made by Made</text><text x="0" y="120" fill="#000000" font-size="5px" font-weight="bold" font-family="'Helvetica Neue', Helvetica, Arial-Unicode, Arial, Sans-serif">from the Noun Project</text></svg>