<svg xmlns="http://www.w3.org/2000/svg" xmlns:xlink="http://www.w3.org/1999/xlink" viewBox="0 0 58 75" version="1.1" x="0px" y="0px"><title>11 -House- (winter, christmas, holiday)</title><desc>Created with Sketch.</desc><g stroke="none" stroke-width="1" fill="none" fill-rule="evenodd"><g transform="translate(-120.000000, -503.000000)" fill="#000000"><g transform="translate(120.000000, 502.000000)"><path d="M42.0012,5.998 C42.5532,5.998 43.0012,5.55 43.0012,4.998 C43.0012,3.895 43.8982,2.998 45.0012,2.998 C45.5532,2.998 46.0012,2.55 46.0012,1.998 C46.0012,1.446 45.5532,0.998 45.0012,0.998 C42.7952,0.998 41.0012,2.792 41.0012,4.998 C41.0012,5.55 41.4492,5.998 42.0012,5.998"/><path d="M55.0012,36.1807 C55.0012,37.1827 54.1862,37.9977 53.1842,37.9977 L45.0012,37.9977 L45.0012,35.9977 C45.0012,35.4457 44.5532,34.9977 44.0012,34.9977 L32.0012,34.9977 C31.4492,34.9977 31.0012,35.4457 31.0012,35.9977 L31.0012,37.9977 L29.0012,37.9977 L29.0012,35.9977 C29.0012,35.4457 28.5532,34.9977 28.0012,34.9977 L21.0012,34.9977 L13.0012,34.9977 L6.0012,34.9977 C5.4492,34.9977 5.0012,35.4457 5.0012,35.9977 L5.0012,37.9977 L4.8182,37.9977 C3.8162,37.9977 3.0012,37.1827 3.0012,36.1807 L3.0012,34.8157 C3.0012,33.8137 3.8162,32.9977 4.8182,32.9977 L53.1842,32.9977 C54.1862,32.9977 55.0012,33.8137 55.0012,34.8157 L55.0012,36.1807 Z M55.0012,43.1807 C55.0012,44.1827 54.1862,44.9977 53.1842,44.9977 L45.0012,44.9977 L45.0012,39.9977 L53.1842,39.9977 C54.1862,39.9977 55.0012,40.8137 55.0012,41.8157 L55.0012,43.1807 Z M55.0012,50.1807 C55.0012,51.1827 54.1862,51.9977 53.1842,51.9977 L45.0012,51.9977 L45.0012,46.9977 L53.1842,46.9977 C54.1862,46.9977 55.0012,47.8137 55.0012,48.8157 L55.0012,50.1807 Z M55.0012,57.1807 C55.0012,58.1827 54.1862,58.9977 53.1842,58.9977 L45.0012,58.9977 L45.0012,53.9977 L53.1842,53.9977 C54.1862,53.9977 55.0012,54.8137 55.0012,55.8157 L55.0012,57.1807 Z M38.0012,45.9977 C35.7952,45.9977 34.0012,44.2037 34.0012,41.9977 C34.0012,39.7927 35.7952,37.9977 38.0012,37.9977 C40.2072,37.9977 42.0012,39.7927 42.0012,41.9977 C42.0012,44.2037 40.2072,45.9977 38.0012,45.9977 L38.0012,45.9977 Z M41.0012,49.9977 L40.0012,49.9977 C39.4492,49.9977 39.0012,49.5507 39.0012,48.9977 C39.0012,48.4457 39.4492,47.9977 40.0012,47.9977 L41.0012,47.9977 C41.5532,47.9977 42.0012,48.4457 42.0012,48.9977 C42.0012,49.5507 41.5532,49.9977 41.0012,49.9977 L41.0012,49.9977 Z M3.0012,57.1807 L3.0012,55.8157 C3.0012,54.8137 3.8162,53.9977 4.8182,53.9977 L31.0012,53.9977 L31.0012,58.9977 L4.8182,58.9977 C3.8162,58.9977 3.0012,58.1827 3.0012,57.1807 L3.0012,57.1807 Z M5.0012,44.9977 L4.8182,44.9977 C3.8162,44.9977 3.0012,44.1827 3.0012,43.1807 L3.0012,41.8157 C3.0012,40.8137 3.8162,39.9977 4.8182,39.9977 L5.0012,39.9977 L5.0012,44.9977 Z M13.0012,50.9977 L21.0012,50.9977 L28.0012,50.9977 C28.5532,50.9977 29.0012,50.5507 29.0012,49.9977 L29.0012,46.9977 L31.0012,46.9977 L31.0012,51.9977 L4.8182,51.9977 C3.8162,51.9977 3.0012,51.1827 3.0012,50.1807 L3.0012,48.8157 C3.0012,47.8137 3.8162,46.9977 4.8182,46.9977 L5.0012,46.9977 L5.0012,49.9977 C5.0012,50.5507 5.4492,50.9977 6.0012,50.9977 L13.0012,50.9977 Z M11.9182,48.9977 L7.0012,48.9977 L7.0012,45.9977 L7.0012,44.0817 C9.5102,44.5037 11.4952,46.4897 11.9182,48.9977 L11.9182,48.9977 Z M7.0012,41.9147 L7.0012,38.9977 L7.0012,36.9977 L11.9182,36.9977 C11.4952,39.5067 9.5102,41.4927 7.0012,41.9147 L7.0012,41.9147 Z M27.0012,38.9977 L27.0012,41.9147 C24.4922,41.4927 22.5072,39.5067 22.0842,36.9977 L27.0012,36.9977 L27.0012,38.9977 Z M27.0012,45.9977 L27.0012,48.9977 L22.0842,48.9977 C22.5072,46.4897 24.4922,44.5037 27.0012,44.0817 L27.0012,45.9977 Z M29.0012,44.9977 L31.0012,44.9977 L31.0012,39.9977 L29.0012,39.9977 L29.0012,44.9977 Z M20.0702,36.9977 C20.3942,39.5807 21.9472,41.7867 24.1312,42.9977 C21.9472,44.2097 20.3942,46.4157 20.0702,48.9977 L13.9322,48.9977 C13.6082,46.4157 12.0552,44.2097 9.8712,42.9977 C12.0552,41.7867 13.6082,39.5807 13.9322,36.9977 L20.0702,36.9977 Z M40.0922,9.4257 C40.0362,9.3977 40.0012,9.3417 40.0012,9.2787 L40.0012,9.1627 C40.0012,9.0727 40.0752,8.9977 40.1662,8.9977 L46.0012,9.0637 L46.0012,9.3397 L45.9102,9.4257 C44.7322,10.0147 44.0012,11.1987 44.0012,12.5147 L44.0012,15.9977 L42.0012,15.9977 L42.0012,12.5147 C42.0012,11.1987 41.2702,10.0147 40.0922,9.4257 L40.0922,9.4257 Z M57.1132,31.3157 C57.6382,30.6317 57.9362,29.8287 57.9932,28.9977 L47.0012,28.9977 C46.4492,28.9977 46.0012,28.5507 46.0012,27.9977 C46.0012,27.4457 46.4492,26.9977 47.0012,26.9977 L57.7032,26.9977 L57.1692,24.9977 L42.0012,24.9977 C41.4492,24.9977 41.0012,24.5507 41.0012,23.9977 C41.0012,23.4457 41.4492,22.9977 42.0012,22.9977 L56.6362,22.9977 L55.5612,18.9677 C55.0952,17.2197 53.5062,15.9977 51.6962,15.9977 L46.0012,15.9977 L46.0012,12.5147 C46.0012,11.9607 46.3092,11.4627 46.8592,11.1877 C47.5632,10.8347 48.0012,10.1267 48.0012,9.3397 L48.0012,9.0637 C48.0012,8.0367 47.2452,7.1887 46.2612,7.0307 C46.6032,6.4177 47.2512,5.9977 48.0012,5.9977 C50.2072,5.9977 52.0012,4.2037 52.0012,1.9977 C52.0012,1.4457 51.5532,0.9977 51.0012,0.9977 C50.4492,0.9977 50.0012,1.4457 50.0012,1.9977 C50.0012,3.1007 49.1042,3.9977 48.0012,3.9977 C46.1432,3.9977 44.5902,5.2777 44.1432,6.9977 L40.1662,6.9977 C38.9722,6.9977 38.0012,7.9697 38.0012,9.1627 L38.0012,9.2787 C38.0012,10.1037 38.4592,10.8457 39.1982,11.2147 C39.6932,11.4627 40.0012,11.9607 40.0012,12.5147 L40.0012,15.9977 L6.3062,15.9977 C4.4962,15.9977 2.9072,17.2197 2.4412,18.9677 L2.1662,19.9977 L10.0012,19.9977 C10.5532,19.9977 11.0012,20.4457 11.0012,20.9977 C11.0012,21.5507 10.5532,21.9977 10.0012,21.9977 L1.6332,21.9977 L1.0992,23.9977 L14.0012,23.9977 C14.5532,23.9977 15.0012,24.4457 15.0012,24.9977 C15.0012,25.5507 14.5532,25.9977 14.0012,25.9977 L0.5662,25.9977 L0.1662,27.4977 C-0.1868,28.8217 0.0902,30.2027 0.9242,31.2887 C1.2272,31.6827 1.5872,32.0137 1.9882,32.2787 C1.3812,32.9547 1.0012,33.8377 1.0012,34.8157 L1.0012,36.1807 C1.0012,37.3007 1.4942,38.2987 2.2652,38.9977 C1.4942,39.6967 1.0012,40.6957 1.0012,41.8157 L1.0012,43.1807 C1.0012,44.3007 1.4942,45.2987 2.2652,45.9977 C1.4942,46.6967 1.0012,47.6957 1.0012,48.8157 L1.0012,50.1807 C1.0012,51.3007 1.4942,52.2987 2.2652,52.9977 C1.4942,53.6967 1.0012,54.6957 1.0012,55.8157 L1.0012,57.1807 C1.0012,59.2857 2.7132,60.9977 4.8182,60.9977 L32.0012,60.9977 L44.0012,60.9977 L53.1842,60.9977 C55.2892,60.9977 57.0012,59.2857 57.0012,57.1807 L57.0012,55.8157 C57.0012,54.6957 56.5082,53.6967 55.7372,52.9977 C56.5082,52.2987 57.0012,51.3007 57.0012,50.1807 L57.0012,48.8157 C57.0012,47.6957 56.5082,46.6967 55.7372,45.9977 C56.5082,45.2987 57.0012,44.3007 57.0012,43.1807 L57.0012,41.8157 C57.0012,40.6957 56.5082,39.6967 55.7372,38.9977 C56.5082,38.2987 57.0012,37.3007 57.0012,36.1807 L57.0012,34.8157 C57.0012,33.8517 56.6312,32.9807 56.0402,32.3087 C56.4452,32.0457 56.8082,31.7127 57.1132,31.3157 L57.1132,31.3157 Z"/><path d="M38.0012,39.998 C36.8982,39.998 36.0012,40.895 36.0012,41.998 C36.0012,43.101 36.8982,43.998 38.0012,43.998 C39.1042,43.998 40.0012,43.101 40.0012,41.998 C40.0012,40.895 39.1042,39.998 38.0012,39.998"/></g></g></g><text x="0" y="75" fill="#000000" font-size="5px" font-weight="bold" font-family="'Helvetica Neue', Helvetica, Arial-Unicode, Arial, Sans-serif">Created by Ben Davis</text><text x="0" y="80" fill="#000000" font-size="5px" font-weight="bold" font-family="'Helvetica Neue', Helvetica, Arial-Unicode, Arial, Sans-serif">from the Noun Project</text></svg>