<?xml version="1.0" standalone="no"?>
<!DOCTYPE svg PUBLIC "-//W3C//DTD SVG 20010904//EN"
 "http://www.w3.org/TR/2001/REC-SVG-20010904/DTD/svg10.dtd">
<svg version="1.0" xmlns="http://www.w3.org/2000/svg"
 width="1200.000000pt" height="1200.000000pt" viewBox="0 0 1200.000000 1200.000000"
 preserveAspectRatio="xMidYMid meet">
<metadata>
Created by potrace 1.11, written by Peter Selinger 2001-2013
</metadata>
<g transform="translate(0.000000,1200.000000) scale(0.100000,-0.100000)"
fill="#000000" stroke="none">
<path d="M8420 11983 c-30 -8 -67 -17 -82 -20 -16 -3 -28 -9 -28 -14 0 -5 -9
-9 -19 -9 -11 0 -21 -3 -23 -7 -1 -5 -21 -17 -43 -28 -64 -32 -185 -160 -228
-242 -74 -141 -97 -323 -49 -390 33 -46 70 -66 129 -69 47 -2 58 1 96 30 44
34 62 70 70 147 9 76 33 149 49 149 5 0 8 6 8 13 0 18 64 74 119 103 28 14 68
26 95 27 25 1 46 4 46 7 0 3 14 5 30 6 42 2 102 52 118 100 25 73 3 140 -62
188 -34 26 -145 31 -226 9z"/>
<path d="M9455 11985 c-67 -36 -90 -75 -99 -165 -2 -25 -7 -58 -10 -73 -14
-61 -93 -158 -152 -186 -16 -7 -38 -18 -48 -23 -11 -6 -47 -12 -80 -14 -89 -5
-144 -13 -206 -31 -30 -9 -58 -16 -62 -15 -5 1 -8 -3 -8 -8 0 -6 -9 -10 -20
-10 -11 0 -20 -4 -20 -10 0 -5 -6 -10 -13 -10 -20 0 -96 -58 -154 -118 -59
-59 -110 -141 -141 -223 -22 -61 -17 -59 -177 -58 -99 1 -137 -1 -147 -7 -4
-3 -8 -2 -8 3 0 7 -31 8 -120 3 -19 -1 -39 -1 -45 0 -22 4 -104 2 -112 -3 -4
-2 -17 -1 -28 3 -10 3 -46 0 -80 -7 -33 -8 -66 -15 -72 -15 -7 -1 -13 -5 -13
-9 0 -4 -9 -11 -21 -14 -53 -17 -134 -115 -161 -196 -29 -86 -15 -225 30 -298
39 -63 117 -131 174 -154 25 -9 76 -84 88 -126 10 -39 11 -57 9 -166 0 -38 -1
-92 0 -120 0 -27 0 -73 0 -102 0 -29 2 -57 6 -63 3 -5 1 -10 -5 -10 -6 0 -8
-5 -5 -10 6 -9 7 -59 4 -132 0 -13 -9 -16 -40 -15 -21 2 -39 -1 -39 -6 0 -4
-5 -5 -11 -1 -7 4 -41 6 -75 5 -35 0 -70 -1 -76 -1 -7 -1 -46 1 -86 2 -39 2
-72 -1 -72 -5 0 -5 -5 -5 -11 -1 -7 4 -41 6 -75 5 -35 0 -70 -1 -76 -1 -7 -1
-46 1 -86 2 -39 2 -72 -1 -72 -5 0 -5 -5 -5 -11 -1 -7 4 -41 6 -75 5 -35 0
-70 -1 -76 -1 -7 -1 -46 1 -86 2 -39 2 -72 -1 -72 -5 0 -5 -5 -5 -11 -1 -7 4
-41 6 -75 5 -35 0 -70 -1 -76 -1 -7 -1 -46 1 -86 2 -39 2 -72 -1 -72 -5 0 -5
-5 -5 -11 -1 -7 4 -41 6 -75 5 -35 0 -70 -1 -76 -1 -7 -1 -46 1 -86 2 -39 2
-72 -1 -72 -5 0 -5 -5 -5 -11 -1 -7 4 -41 6 -75 5 -35 0 -70 -1 -76 -1 -7 -1
-46 1 -86 2 -39 2 -72 -1 -72 -5 0 -5 -5 -5 -11 -1 -7 4 -41 6 -75 5 -35 0
-70 -1 -76 -1 -7 -1 -46 1 -86 2 -39 2 -72 -1 -72 -5 0 -5 -5 -5 -11 -1 -7 4
-41 6 -75 5 -84 -2 -73 -2 -194 -1 -58 1 -109 1 -115 0 -5 -2 -14 -2 -19 -1
-30 6 -89 6 -98 -1 -7 -3 -16 -4 -22 -1 -12 8 -164 8 -172 0 -3 -3 -16 -2 -28
2 -11 5 -30 5 -40 1 -11 -3 -37 -3 -58 0 -21 4 -41 3 -44 -1 -3 -5 -10 -6 -16
-3 -9 6 -110 9 -133 4 -5 -1 -12 -2 -15 0 -15 5 -143 4 -146 -2 -3 -4 -15 -4
-27 1 -12 5 -31 5 -41 1 -11 -3 -37 -3 -58 0 -21 4 -41 4 -44 -1 -2 -4 -15 -5
-27 -1 -20 7 -68 8 -92 2 -5 -1 -12 -1 -15 0 -13 5 -171 3 -176 -3 -3 -3 -16
-2 -28 2 -11 5 -30 5 -40 1 -11 -3 -37 -3 -58 0 -21 4 -41 3 -44 -1 -3 -5 -10
-6 -16 -3 -9 6 -110 9 -133 4 -5 -1 -12 -2 -15 0 -15 5 -143 4 -146 -2 -3 -4
-15 -4 -27 1 -12 5 -31 5 -41 1 -11 -3 -37 -3 -58 0 -21 4 -41 4 -44 -1 -2 -4
-15 -5 -27 -1 -20 7 -68 8 -92 2 -5 -1 -12 -1 -15 0 -13 5 -171 3 -176 -3 -3
-3 -16 -2 -28 2 -11 5 -30 5 -40 1 -11 -3 -37 -3 -58 0 -21 4 -41 3 -44 -1 -3
-5 -10 -6 -16 -3 -13 8 -123 8 -136 0 -6 -3 -13 -3 -15 1 -9 14 -196 1 -277
-19 -119 -30 -278 -140 -345 -239 -17 -24 -33 -45 -37 -47 -4 -2 -14 -25 -23
-53 -9 -27 -21 -49 -27 -49 -6 0 -9 -2 -6 -5 3 -3 -5 -43 -19 -88 -37 -126
-37 -126 -11 -136 13 -4 35 -5 50 0 16 4 28 4 28 -1 0 -5 13 -5 30 0 17 5 30
5 30 1 0 -5 17 -5 38 -2 20 4 48 4 62 1 14 -4 37 -3 53 1 15 4 27 4 27 -1 0
-6 10 -6 25 0 15 6 26 6 30 -1 4 -5 12 -6 18 -2 13 8 75 8 83 0 3 -3 18 -2 32
2 15 4 38 5 52 1 14 -4 37 -3 53 1 15 4 27 4 27 -1 0 -6 10 -6 25 0 15 6 26 6
30 -1 4 -5 12 -6 18 -2 13 8 75 8 83 0 3 -3 18 -2 32 2 15 4 38 5 52 1 14 -4
37 -3 53 1 15 4 27 4 27 -1 0 -6 10 -6 25 0 15 6 26 6 30 -1 4 -5 11 -6 18 -2
13 8 58 9 78 1 9 -3 22 -3 29 2 7 4 26 4 41 0 16 -5 29 -5 29 0 0 4 24 2 53
-6 90 -23 141 -105 122 -194 -12 -53 -86 -118 -127 -111 -5 0 -8 -3 -8 -8 0
-5 -12 -6 -27 -2 -14 4 -48 4 -75 1 -26 -4 -48 -3 -48 1 0 4 -13 4 -30 -1 -16
-5 -30 -6 -30 -2 0 4 -25 7 -55 7 -30 0 -55 -3 -55 -7 0 -3 -12 -3 -27 1 -14
4 -48 4 -75 1 -26 -4 -48 -3 -48 1 0 4 -13 4 -30 -1 -16 -5 -30 -6 -30 -2 0 4
-25 7 -55 7 -30 0 -55 -3 -55 -7 0 -3 -12 -3 -27 1 -14 4 -48 4 -75 1 -26 -4
-48 -3 -48 1 0 4 -13 4 -30 -1 -16 -5 -30 -6 -30 -2 0 4 -25 7 -55 7 -30 0
-55 -3 -55 -7 0 -4 -13 -3 -29 2 -16 4 -31 7 -33 5 -5 -5 -61 -6 -108 -3 -20
1 -40 -1 -46 -4 -5 -4 -16 -3 -24 2 -8 5 -22 5 -32 -1 -10 -5 -18 -6 -18 -2 0
5 -17 7 -37 5 -21 -2 -49 -3 -62 -3 -14 1 -22 -1 -19 -5 3 -3 -1 -31 -9 -62
-8 -31 -17 -64 -19 -72 -2 -8 -12 -49 -23 -90 -12 -41 -21 -78 -21 -82 0 -5
1923 -13 2030 -8 74 3 118 -15 156 -65 23 -31 28 -48 29 -95 0 -47 -5 -63 -29
-94 -26 -35 -91 -74 -103 -62 -3 2 -16 1 -29 -4 -13 -5 -24 -6 -24 -2 0 9 -92
8 -107 -1 -6 -4 -14 -4 -17 1 -5 8 -53 9 -61 0 -3 -3 -23 -2 -44 2 -20 4 -47
3 -59 -1 -12 -5 -22 -5 -22 -1 0 6 -89 8 -115 2 -5 -1 -12 -1 -15 0 -16 6
-143 4 -147 -3 -2 -4 -9 -4 -16 0 -14 9 -57 11 -62 3 -3 -6 -50 -5 -50 0 0 6
-57 4 -61 -2 -3 -5 -13 -4 -21 1 -9 5 -29 5 -44 1 -15 -5 -30 -5 -33 -2 -8 8
-131 6 -145 -2 -5 -4 -12 -3 -15 2 -5 9 -47 9 -62 -1 -5 -3 -16 -2 -23 3 -8 4
-26 4 -42 0 -15 -5 -30 -6 -33 -3 -9 9 -187 9 -193 0 -2 -4 -9 -4 -16 0 -15 9
-57 11 -63 2 -2 -3 -21 -3 -42 1 -21 4 -48 3 -60 -1 -12 -5 -22 -5 -22 -1 0 9
-104 7 -118 -2 -6 -3 -13 -3 -15 1 -6 10 -129 9 -144 0 -7 -4 -14 -4 -17 1 -4
6 -61 8 -61 2 0 -5 -46 -6 -49 -1 -5 7 -115 5 -122 -2 -5 -5 -57 -188 -69
-242 -2 -11 -7 -31 -10 -45 -11 -44 -13 -187 -4 -237 16 -86 49 -180 84 -238
19 -32 35 -62 35 -67 0 -5 5 -6 10 -3 5 3 10 0 10 -8 0 -15 135 -147 151 -147
16 0 10 -29 -10 -49 -29 -29 -77 -119 -101 -192 -21 -60 -29 -127 -30 -224 0
-22 0 -49 0 -60 0 -11 0 -29 0 -40 1 -19 1 -29 -1 -57 0 -7 2 -42 5 -78 11
-117 80 -269 160 -351 l36 -36 -31 -34 c-36 -40 -112 -149 -104 -149 3 0 -1
-10 -9 -22 -17 -27 -43 -115 -51 -178 -4 -24 -9 -48 -11 -52 -3 -5 -1 -8 5 -8
6 0 6 -11 1 -29 -4 -15 -5 -33 -1 -39 6 -10 6 -62 1 -87 -1 -5 -2 -12 0 -15 6
-16 4 -80 -3 -80 -5 0 -5 -4 -2 -10 3 -5 8 -29 11 -52 14 -115 85 -259 167
-338 l27 -27 -30 -34 c-122 -135 -174 -279 -170 -469 0 -25 0 -52 0 -60 0 -8
0 -24 0 -35 1 -19 1 -30 -1 -57 -3 -45 14 -151 32 -202 23 -66 59 -139 72
-144 4 -2 7 -8 7 -13 0 -8 35 -51 78 -96 12 -11 9 -18 -17 -42 -17 -16 -31
-34 -31 -40 0 -6 -3 -11 -7 -11 -7 0 -68 -89 -68 -100 -1 -3 -6 -15 -13 -28
-17 -30 -53 -172 -47 -182 3 -5 1 -11 -4 -14 -5 -4 -6 -18 -2 -34 4 -15 5 -38
1 -52 -4 -14 -3 -34 1 -46 4 -11 4 -27 -1 -34 -5 -7 -5 -23 0 -35 5 -12 4 -28
0 -35 -5 -8 -7 -17 -4 -21 2 -5 7 -34 9 -66 6 -70 9 -85 30 -143 44 -123 143
-248 248 -313 29 -17 54 -30 56 -29 2 2 7 0 10 -5 16 -24 150 -55 246 -59 55
-2 102 -4 105 -5 3 -1 10 0 15 1 13 2 147 2 160 0 6 -1 15 -1 20 0 13 2 87 2
100 0 6 -1 15 -1 20 0 6 1 30 1 55 1 48 -1 55 -1 125 -1 25 0 52 0 60 0 8 0
35 0 60 0 25 0 52 0 60 0 8 0 35 0 60 0 25 0 51 0 58 0 6 0 32 0 57 1 25 0 47
0 50 -1 16 -4 130 -4 130 0 0 6 130 2 147 -5 7 -2 13 -1 13 3 0 8 126 6 147
-3 7 -2 13 -1 13 3 0 8 126 6 147 -3 7 -2 13 -1 13 3 0 8 202 7 224 -1 8 -3
17 -3 20 1 8 8 103 5 116 -3 6 -3 10 -3 10 2 0 9 83 8 106 -1 8 -3 14 -2 14 2
0 8 85 6 106 -2 8 -3 14 -2 14 2 0 4 25 7 55 7 30 0 55 -3 55 -7 0 -4 6 -5 14
-2 21 8 106 10 106 2 0 -4 6 -5 14 -2 21 8 106 10 106 2 0 -4 6 -5 14 -2 21 8
106 10 106 2 0 -4 6 -5 14 -2 21 8 106 10 106 2 0 -4 6 -5 14 -2 18 7 106 10
106 4 0 -3 27 -5 60 -5 33 0 60 2 60 5 0 6 130 2 147 -5 7 -2 13 -1 13 3 0 8
126 6 147 -3 7 -2 13 -1 13 3 0 8 126 6 147 -3 7 -2 13 -1 13 3 0 4 53 6 117
4 65 -1 124 -2 131 -2 6 0 32 0 57 0 25 0 52 0 60 0 8 0 35 0 60 0 25 0 52 0
60 0 8 0 35 0 60 0 25 0 52 0 60 0 8 0 35 0 60 0 25 0 52 0 60 0 8 0 35 0 60
0 25 0 52 0 60 0 8 0 35 0 60 0 25 0 52 0 60 0 8 0 35 0 60 0 25 0 52 0 60 0
8 0 35 0 60 0 25 0 51 0 58 0 6 0 32 0 57 1 25 0 47 0 50 -1 16 -4 130 -4 130
0 0 6 130 2 147 -5 7 -2 13 -1 13 3 0 8 126 6 147 -3 7 -2 13 -1 13 3 0 8 126
6 147 -3 7 -2 13 -1 13 3 0 8 202 7 224 -1 8 -3 17 -3 20 1 8 8 103 5 116 -3
6 -3 10 -3 10 2 0 9 83 8 106 -1 8 -3 14 -2 14 2 0 8 85 6 106 -2 8 -3 14 -2
14 2 0 4 25 7 55 7 30 0 55 -3 55 -7 0 -4 6 -5 14 -2 21 8 106 10 106 2 0 -4
6 -5 14 -2 21 8 106 10 106 2 0 -4 6 -5 14 -2 21 8 106 10 106 2 0 -4 6 -5 14
-2 21 8 106 10 106 2 0 -4 6 -5 14 -2 18 7 106 10 106 4 0 -3 27 -5 60 -5 33
0 60 2 60 5 0 6 130 2 147 -5 7 -2 13 -1 13 3 0 8 126 6 147 -3 7 -2 13 -1 13
3 0 8 126 6 147 -3 7 -2 13 -1 13 3 0 4 53 6 117 4 137 -3 125 -3 183 -1 25 0
50 0 55 -1 6 -1 12 -2 15 -2 3 0 36 3 73 7 36 3 86 13 109 21 24 9 48 17 53
18 22 5 103 51 140 80 55 43 86 74 121 121 16 22 31 42 34 45 8 7 56 119 70
164 7 21 14 64 16 95 2 31 4 56 4 56 1 0 2 16 3 37 1 20 -2 34 -7 31 -5 -4 -6
-1 -2 5 10 17 13 93 4 98 -5 3 -4 13 2 23 5 10 7 21 4 24 -3 2 -7 33 -9 68 -4
63 -34 169 -56 195 -6 8 -8 14 -5 14 11 0 -75 123 -107 153 l-29 27 41 43 c23
23 44 50 47 60 3 9 10 17 15 17 5 0 9 6 9 14 0 7 8 24 18 37 10 13 25 47 35
74 22 63 47 205 36 205 -4 0 -4 13 1 30 5 16 5 32 1 35 -5 2 -5 23 -1 45 5 26
4 37 -3 33 -6 -3 -7 -1 -3 5 9 14 14 82 7 82 -3 0 -6 16 -5 36 2 56 -22 142
-60 219 -38 76 -54 99 -103 151 l-33 33 36 38 c19 21 42 50 50 65 8 16 19 28
24 28 6 0 10 4 10 10 0 5 11 33 24 62 35 79 48 124 52 187 2 31 4 56 4 56 1 0
2 15 3 33 1 17 -2 32 -6 32 -5 0 -5 4 -2 10 9 15 12 91 4 96 -4 2 -4 17 1 33
4 16 6 31 4 34 -2 2 -6 28 -9 58 -5 54 -28 137 -48 174 -6 11 -11 22 -12 25
-1 18 -58 99 -103 146 l-34 35 41 42 c22 22 43 49 47 59 3 10 10 18 15 18 5 0
9 6 9 14 0 7 8 24 18 37 10 13 25 47 35 74 22 63 47 205 36 205 -4 0 -4 13 1
30 5 16 5 32 1 35 -5 2 -5 23 -1 45 4 21 3 37 -1 34 -5 -3 -6 5 -1 18 6 20 7
53 2 68 0 3 -3 28 -4 55 -6 90 -50 200 -114 289 -34 46 -35 50 -18 60 10 6 29
21 42 34 13 12 26 22 29 22 17 0 131 151 158 211 27 59 55 152 60 201 5 52 -6
62 -51 46 -13 -4 -21 -5 -19 0 4 6 -217 8 -233 2 -3 -2 -9 -1 -15 0 -24 6 -72
5 -93 -2 -13 -5 -21 -5 -19 0 4 6 -97 8 -113 2 -3 -1 -9 -1 -15 0 -24 6 -72 5
-93 -2 -13 -5 -21 -5 -19 0 4 6 -97 8 -113 2 -3 -1 -9 -1 -15 0 -24 6 -72 5
-93 -2 -13 -5 -21 -5 -19 0 6 9 -216 8 -231 -2 -7 -4 -12 -4 -12 1 0 10 -133
9 -149 -1 -6 -4 -11 -4 -11 1 0 10 -133 9 -149 -1 -6 -4 -11 -4 -11 1 0 10
-133 9 -149 -1 -6 -4 -11 -4 -11 1 0 4 -40 8 -88 8 -96 0 -130 15 -167 72 -19
29 -30 143 -14 143 5 0 9 6 9 14 0 17 54 64 88 77 13 5 116 9 230 9 238 -1
220 -1 315 0 39 1 128 1 197 0 69 0 230 1 358 2 127 2 232 0 232 -4 0 -3 8 -4
18 -2 25 7 222 10 222 4 0 -3 42 -4 93 -2 90 3 94 4 92 25 -1 12 -5 29 -8 37
-3 8 -9 29 -13 45 -4 17 -8 32 -9 35 0 3 -7 30 -15 60 -20 81 -39 123 -54 117
-7 -3 -19 -1 -26 3 -8 5 -22 4 -32 -1 -10 -5 -18 -6 -18 -2 0 4 -11 8 -25 8
-14 0 -25 -4 -25 -8 0 -4 -8 -3 -18 2 -11 6 -24 6 -35 0 -9 -6 -17 -6 -17 -2
0 4 -11 8 -25 8 -14 0 -25 -4 -25 -8 0 -4 -8 -3 -18 2 -11 6 -24 6 -35 0 -9
-6 -17 -6 -17 -2 0 4 -11 8 -25 8 -14 0 -25 -4 -25 -8 0 -4 -8 -3 -18 2 -11 6
-24 6 -35 0 -9 -6 -17 -6 -17 -2 0 4 -11 8 -25 8 -14 0 -25 -4 -25 -8 0 -4 -8
-3 -18 2 -11 6 -24 6 -35 0 -9 -6 -17 -6 -17 -2 0 4 -11 8 -25 8 -14 0 -25 -4
-25 -8 0 -4 -8 -3 -18 2 -11 6 -24 6 -35 0 -9 -6 -17 -6 -17 -2 0 4 -11 8 -25
8 -14 0 -25 -4 -25 -8 0 -4 -8 -3 -18 2 -11 6 -24 6 -35 0 -9 -6 -17 -6 -17
-2 0 4 -11 8 -25 8 -14 0 -25 -4 -25 -8 0 -4 -8 -3 -18 2 -11 6 -24 6 -35 0
-9 -6 -17 -6 -17 -2 0 4 -11 8 -25 8 -14 0 -25 -4 -25 -8 0 -4 -8 -3 -18 2
-11 6 -24 6 -35 0 -9 -6 -17 -6 -17 -2 0 4 -11 8 -25 8 -14 0 -25 -4 -25 -8 0
-4 -8 -4 -17 2 -11 6 -24 6 -35 0 -10 -5 -18 -6 -18 -2 0 4 -11 8 -25 8 -14 0
-25 -4 -25 -8 0 -4 -8 -3 -18 2 -11 6 -24 6 -35 0 -9 -6 -17 -6 -17 -2 0 4
-11 8 -25 8 -14 0 -25 -4 -25 -8 0 -4 -8 -3 -18 2 -11 6 -24 6 -35 0 -9 -6
-17 -6 -17 -1 0 4 -17 7 -37 4 -43 -4 -43 -4 -100 1 -24 2 -43 -1 -43 -6 0 -4
-5 -5 -11 -2 -16 11 -69 12 -69 2 0 -4 -5 -5 -11 -2 -16 11 -69 12 -69 2 0 -4
-5 -5 -11 -2 -16 11 -69 12 -69 2 0 -4 -5 -5 -11 -2 -16 11 -69 12 -69 2 0 -4
-5 -5 -11 -2 -16 11 -69 12 -69 2 0 -4 -5 -5 -11 -2 -16 11 -69 12 -69 2 0 -4
-5 -5 -11 -2 -16 11 -69 12 -69 2 0 -4 -5 -5 -11 -2 -16 11 -69 12 -69 2 0 -4
-5 -5 -11 -2 -15 10 -69 13 -69 4 0 -4 -13 -4 -28 1 -16 4 -36 4 -45 -2 -10
-5 -17 -5 -17 0 0 4 -13 7 -28 6 -97 -7 -175 110 -142 212 9 27 80 105 80 88
0 -4 7 -1 15 6 8 7 15 10 15 7 0 -3 16 -1 35 3 20 4 38 4 41 -1 3 -5 9 -7 14
-4 16 10 81 12 86 3 3 -5 10 -5 17 -1 15 9 60 9 75 -1 7 -4 12 -4 12 1 0 4 11
8 25 8 14 0 25 -3 25 -7 0 -4 10 -4 23 1 12 5 31 5 42 1 11 -4 31 -4 45 0 14
4 35 4 47 -1 12 -4 24 -5 27 0 5 8 59 6 75 -3 5 -4 12 -3 15 2 4 7 42 8 71 2
6 -1 12 -2 15 -1 16 6 123 5 127 -2 2 -4 9 -4 15 -1 16 10 69 11 75 1 2 -4 9
-5 14 -1 14 8 129 11 129 3 0 -4 18 -3 40 1 23 4 40 3 40 -2 0 -5 7 -5 17 0 9
5 28 6 42 3 14 -4 37 -5 51 -1 14 4 35 3 47 -1 12 -5 24 -5 27 -1 5 9 64 7 72
-1 3 -3 18 -2 33 3 15 4 35 3 44 -2 10 -5 17 -5 17 -1 0 5 12 8 28 7 15 -1 27
-3 27 -4 0 -5 47 -6 50 0 5 8 48 6 62 -3 7 -4 14 -4 17 1 5 9 47 9 63 -1 7 -4
14 -4 17 1 5 9 47 9 63 -1 7 -4 14 -4 17 1 3 5 24 7 48 5 43 -4 69 -4 121 1
15 1 27 -1 27 -6 0 -4 10 -4 22 1 13 4 35 5 50 0 16 -4 28 -4 28 0 0 8 58 6
66 -2 3 -3 19 -1 35 3 17 5 31 5 35 -1 3 -5 11 -6 17 -2 16 10 48 10 68 1 27
-12 40 13 28 53 -5 19 -12 42 -14 52 -2 10 -7 27 -10 37 -3 10 -8 27 -10 37
-2 10 -15 61 -30 113 -14 52 -28 102 -30 110 -2 8 -4 15 -5 15 -2 0 -10 34
-14 60 -2 11 -5 22 -6 25 -1 3 -3 10 -4 15 -1 6 -5 17 -8 25 -3 8 -16 51 -28
95 -20 74 -64 174 -93 213 -34 45 -172 173 -193 178 -13 3 -24 9 -24 13 0 5
-32 21 -70 36 -97 35 -323 65 -336 43 -3 -4 -15 -4 -27 1 -12 5 -31 5 -41 1
-11 -3 -37 -3 -58 0 -21 4 -41 3 -44 -1 -3 -5 -10 -6 -16 -3 -9 6 -110 9 -133
4 -5 -1 -12 -2 -15 0 -15 5 -143 4 -146 -2 -3 -4 -15 -4 -27 1 -12 5 -31 5
-41 1 -11 -3 -37 -3 -58 0 -21 4 -41 4 -44 -1 -2 -4 -15 -4 -27 0 -12 5 -32 5
-44 0 -13 -5 -23 -5 -23 -1 0 4 -16 7 -35 6 -33 -2 -41 5 -35 31 5 26 4 225
-2 225 -3 0 -4 8 -2 18 2 9 5 91 7 182 2 136 6 171 20 198 22 41 84 102 103
102 8 0 14 5 14 10 0 6 5 10 10 10 24 0 106 83 133 135 23 43 25 50 33 109 3
22 8 44 11 49 3 6 1 7 -5 3 -9 -5 -9 0 -3 17 6 14 7 28 4 31 -3 3 -7 21 -9 40
-5 54 -54 144 -101 186 -44 39 -120 80 -148 80 -57 0 84 140 158 156 4 1 8 3
10 4 1 1 22 4 47 5 175 12 248 31 357 91 64 36 184 146 216 199 70 116 104
230 103 342 -1 77 -15 106 -68 146 -36 27 -114 33 -153 12z m-1559 -1264 c3 5
10 6 17 2 9 -6 188 -9 674 -12 l132 -1 -2 -27 c-2 -20 -12 -33 -39 -48 -158
-89 -265 -260 -274 -440 -3 -57 -5 -181 -3 -237 0 -7 0 -47 0 -88 0 -41 0 -82
0 -90 0 -8 -1 -45 -2 -82 -2 -37 0 -70 3 -74 10 -9 -3 -35 -13 -28 -9 5 -115
9 -134 4 -5 -1 -12 -1 -15 0 -14 5 -109 4 -133 -2 -15 -4 -25 -3 -22 2 3 5 1
11 -5 15 -7 4 -7 12 0 25 7 13 7 21 0 25 -7 4 -7 12 0 25 7 13 7 21 0 25 -6 4
-7 12 -1 23 5 9 5 26 1 38 -5 12 -7 24 -4 27 8 8 10 88 2 93 -4 3 -3 16 2 29
5 14 6 25 2 25 -4 0 -6 24 -4 52 5 114 5 135 -1 146 -4 6 -3 13 3 17 6 4 7 12
3 18 -4 7 -8 25 -9 41 -5 55 -27 131 -58 191 -34 68 -150 189 -208 219 -41 21
-55 46 -39 73 6 10 11 15 11 11 0 -3 12 -3 28 1 15 4 39 4 54 0 16 -4 30 -3
34 2z m-5591 -3843 c4 5 118 6 141 1 5 -1 14 0 19 1 12 2 128 2 141 -1 5 -1
14 0 19 1 12 2 128 2 141 -1 5 -1 14 0 19 1 12 2 128 2 141 -1 5 -1 14 0 19 1
12 2 128 2 141 -1 5 -1 14 0 19 1 12 2 128 2 141 -1 5 -1 14 0 19 1 12 2 128
2 141 -1 5 -1 14 0 19 1 12 2 128 2 141 -1 5 -1 14 0 19 1 12 2 128 2 141 -1
5 -1 14 0 19 1 12 2 128 2 141 -1 5 -1 14 0 19 1 12 2 128 2 141 -1 5 -1 14 0
19 1 12 2 128 2 141 -1 5 -1 14 0 19 1 12 2 128 2 141 -1 5 -1 14 0 19 1 12 2
128 2 141 -1 5 -1 14 0 19 1 12 2 128 2 141 -1 5 -1 14 0 19 1 12 2 128 2 141
-1 5 -1 14 0 19 1 12 2 128 2 141 -1 5 -1 14 -1 19 0 34 7 245 5 245 -2 0 -5
4 -6 8 -3 8 5 77 8 112 5 8 -1 40 -1 70 0 30 0 62 0 70 0 8 -1 31 -1 50 0 45
2 151 3 168 2 6 -1 18 -1 25 -2 6 -1 28 -1 47 0 45 2 151 3 168 2 6 -1 18 -1
25 -2 6 -1 28 -1 47 0 45 2 151 3 168 2 6 -1 18 -1 25 -2 6 -1 28 -1 47 0 45
2 151 3 168 2 6 -1 18 -1 25 -2 6 -1 28 -1 47 0 45 2 151 3 168 2 6 -1 18 -1
25 -2 6 -1 28 -1 47 0 45 2 151 3 168 2 6 -1 18 -1 25 -2 6 -1 28 -1 47 0 45
2 151 3 168 2 6 -1 18 -1 25 -2 6 -1 28 -1 47 0 45 2 151 3 168 2 6 -1 18 -1
25 -2 6 -1 28 -1 47 0 45 2 151 3 168 2 6 -1 18 -1 25 -2 6 -1 28 -1 47 0 45
2 151 3 168 2 6 -1 18 -1 25 -2 6 -1 28 -1 47 0 45 2 151 3 168 2 6 -1 18 -1
25 -2 6 -1 28 -1 47 0 45 2 151 3 168 2 6 -1 18 -1 25 -2 6 -1 28 -1 47 0 45
2 151 3 168 2 6 -1 18 -1 25 -2 6 -1 28 -1 47 0 45 2 151 3 168 2 6 -1 18 -1
25 -2 6 -1 28 -1 47 0 45 2 151 3 168 2 6 -1 18 -1 25 -2 6 -1 28 -1 47 0 45
2 151 3 168 2 6 -1 18 -1 25 -2 6 -1 28 -1 47 0 45 2 151 3 168 2 28 -2 39 -2
82 -2 25 0 52 0 60 0 8 0 35 0 60 1 183 4 281 -44 342 -168 22 -44 23 -58 23
-232 0 -172 -2 -188 -23 -230 -31 -63 -72 -105 -134 -137 l-53 -28 -690 0
-689 0 -6 25 c-4 14 -3 37 1 52 4 14 5 29 1 32 -3 4 -5 28 -4 54 3 73 4 117 2
122 -1 3 -3 25 -4 49 -5 68 -59 127 -126 137 -63 9 -102 10 -107 2 -2 -5 -9
-6 -14 -2 -9 5 -83 8 -104 4 -5 -1 -14 -1 -20 0 -8 2 -140 1 -340 -1 -5 0 -39
0 -75 1 -36 0 -81 0 -100 -1 -19 -1 -38 0 -42 1 -11 2 -136 2 -145 0 -5 -1
-12 -1 -18 0 -5 1 -39 2 -75 1 -36 -1 -71 -2 -77 -2 -7 0 -33 0 -58 0 -25 0
-51 0 -57 0 -88 0 -297 1 -308 0 -8 0 -44 0 -80 1 -36 0 -82 0 -103 0 -22 0
-43 2 -47 5 -5 3 -11 1 -15 -5 -4 -6 -11 -8 -16 -4 -13 8 -97 9 -105 2 -3 -4
-16 -3 -28 2 -14 5 -34 3 -54 -6 -18 -7 -32 -10 -32 -7 0 10 -60 -49 -71 -69
-5 -10 -12 -37 -15 -60 -4 -24 -8 -45 -9 -47 -2 -1 0 -13 5 -25 4 -13 5 -29 0
-36 -5 -7 -5 -23 -1 -34 4 -12 5 -32 1 -46 -4 -14 -3 -35 1 -47 5 -12 4 -25
-1 -28 -5 -3 -5 -18 0 -35 5 -16 5 -32 2 -34 -4 -2 -78 -4 -164 -4 l-157 0 -3
188 c-3 172 -5 191 -24 216 -44 60 -84 75 -191 74 -29 0 -56 0 -60 -1 -5 -1
-11 0 -15 1 -5 1 -37 2 -73 2 -36 0 -68 -1 -72 -2 -5 -1 -12 -1 -18 0 -5 1
-30 2 -55 1 -25 0 -66 0 -92 0 -71 0 -74 0 -120 0 -24 -1 -87 0 -141 2 -53 1
-97 -1 -97 -5 0 -4 -13 -3 -29 2 -16 4 -32 6 -34 4 -3 -3 -27 -5 -53 -4 -27 0
-57 1 -66 1 -28 0 -106 0 -125 0 -70 -1 -142 0 -230 2 -57 1 -103 -1 -103 -5
0 -4 -13 -3 -29 2 -16 4 -32 6 -34 4 -3 -3 -27 -5 -53 -4 -27 0 -57 1 -66 1
-28 0 -106 0 -125 0 -70 -1 -142 0 -230 2 -57 1 -103 -1 -103 -5 0 -4 -13 -3
-29 2 -16 4 -32 6 -34 4 -3 -3 -27 -5 -53 -4 -27 0 -57 1 -66 1 -28 0 -106 0
-125 0 -70 -1 -142 0 -230 2 -57 1 -103 -1 -103 -5 0 -4 -13 -3 -29 2 -16 4
-32 6 -34 4 -3 -3 -27 -5 -53 -4 -27 0 -57 1 -66 1 -28 0 -106 0 -125 0 -70
-1 -142 0 -230 2 -57 1 -103 -2 -103 -6 0 -5 -5 -5 -11 -1 -13 8 -160 3 -217
-7 -16 -3 -82 -75 -83 -92 0 -6 -2 -21 -5 -32 -2 -11 -4 -33 -4 -50 0 -48 0
-64 0 -77 -1 -7 0 -31 1 -53 0 -22 0 -44 -1 -50 -5 -26 -4 -62 2 -82 5 -17 2
-23 -13 -28 -24 -8 -92 2 -134 20 -30 12 -133 95 -119 95 4 0 1 8 -7 18 -41
51 -44 64 -46 242 -2 199 7 240 67 315 51 63 123 97 218 102 42 2 78 5 79 7 2
2 23 0 48 -4 25 -4 47 -4 50 -2z m216 -638 c11 6 20 6 24 1 3 -6 17 -6 35 -1
18 5 32 5 35 -1 4 -5 14 -5 25 1 13 7 21 7 25 0 4 -6 11 -7 18 -3 14 8 60 9
73 0 5 -3 16 -2 24 3 8 5 21 5 31 -1 11 -6 20 -5 24 1 4 6 15 6 30 0 14 -5 25
-6 25 -2 0 4 11 7 25 7 14 0 25 -3 25 -7 0 -4 11 -3 25 2 15 6 26 6 30 -1 4
-6 13 -6 23 0 10 6 23 6 34 0 10 -6 19 -5 23 1 3 6 15 6 30 0 15 -6 27 -6 30
0 3 6 16 5 31 0 14 -6 23 -7 21 -2 -3 4 8 7 24 7 16 0 29 -3 29 -7 0 -4 6 -5
14 -2 12 4 13 -1 5 -33 -5 -21 -12 -49 -15 -63 -16 -75 -128 -298 -155 -308
-5 -2 -9 -8 -9 -14 0 -10 -144 -156 -186 -189 -11 -9 -36 -24 -55 -35 -19 -10
-36 -21 -39 -24 -4 -5 -85 -44 -145 -70 -26 -12 -105 -33 -128 -36 -10 -1 -21
-4 -24 -8 -14 -13 -31 37 -22 66 4 17 4 28 -2 28 -6 0 -7 4 -4 10 9 15 12 89
4 102 -4 6 -4 21 1 33 5 12 4 28 0 35 -5 8 -4 22 1 31 6 11 5 20 -1 24 -5 3
-6 13 -3 22 8 21 8 81 0 89 -3 3 -2 16 3 29 5 13 6 26 3 29 -6 6 -6 34 -1 136
1 20 -1 42 -4 51 -3 9 -2 22 2 29 5 7 5 23 1 34 -10 27 -3 52 12 37 6 -6 16
-7 28 -1z m1132 -4 c8 8 236 8 244 0 3 -3 14 -1 24 4 12 7 20 7 24 0 4 -6 11
-7 18 -3 14 8 60 9 73 0 5 -3 16 -2 24 3 8 5 21 5 31 -1 11 -6 20 -5 24 1 4 6
15 6 30 0 14 -5 25 -6 25 -2 0 4 11 7 25 7 14 0 25 -3 25 -7 0 -4 11 -3 25 2
15 6 26 6 30 -1 4 -6 13 -6 23 0 10 6 23 6 34 0 10 -6 19 -5 23 1 3 5 15 6 29
0 12 -4 29 -4 36 0 8 5 22 4 31 -1 11 -6 20 -5 24 1 4 6 15 6 31 0 14 -6 23
-6 20 -1 -3 4 6 6 19 3 20 -3 26 -13 35 -61 6 -31 13 -66 16 -78 2 -13 5 -26
5 -30 0 -5 5 -14 11 -20 6 -7 8 -13 4 -13 -3 0 4 -26 16 -57 11 -32 25 -69 30
-83 5 -14 9 -27 8 -29 -1 -2 2 -7 7 -10 4 -3 21 -31 37 -61 62 -120 153 -240
245 -324 19 -17 44 -40 55 -51 12 -11 37 -31 56 -45 19 -13 37 -27 40 -30 3
-4 26 -19 53 -34 50 -30 58 -43 30 -53 -29 -10 -194 -136 -243 -184 -37 -36
-98 -106 -159 -184 -22 -28 -111 -187 -111 -198 0 -7 -4 -17 -9 -22 -10 -11
-67 -175 -76 -220 -3 -16 -9 -48 -12 -70 -7 -50 -21 -77 -35 -69 -15 10 -128
11 -128 1 0 -4 -8 -4 -17 0 -10 5 -31 7 -48 6 -37 -4 -37 -4 -113 -1 -34 2
-62 -1 -62 -5 0 -4 -8 -4 -17 0 -10 5 -31 7 -48 6 -37 -4 -37 -4 -113 -1 -34
2 -62 -1 -62 -5 0 -4 -8 -4 -17 0 -10 5 -31 7 -48 6 -35 -4 -32 -4 -111 -1
-33 1 -66 -2 -72 -6 -6 -3 -13 -3 -16 2 -3 5 -23 7 -44 5 -44 -3 -46 1 -58 90
-15 104 -147 427 -175 427 -5 0 -9 5 -9 11 0 41 -253 319 -290 319 -6 0 -10 3
-10 8 0 4 -31 27 -70 52 -38 25 -70 47 -70 50 0 3 28 24 62 45 34 22 72 49 85
60 12 11 46 40 75 65 46 38 119 116 175 187 24 30 108 164 108 172 0 3 12 31
27 61 36 72 76 197 94 288 8 41 14 75 14 77 0 8 36 11 46 3 6 -4 14 -5 17 -2z
m1297 2 c0 8 156 6 177 -2 7 -3 15 -1 18 4 4 7 13 6 26 0 10 -6 19 -7 19 -3 0
4 11 8 25 8 14 0 25 -4 25 -8 0 -4 8 -4 18 0 21 10 53 10 69 0 6 -4 14 -3 18
2 3 6 15 7 28 2 12 -5 31 -5 42 -1 11 4 25 3 32 -2 7 -5 14 -5 18 2 4 7 12 7
26 0 10 -6 19 -7 19 -3 0 10 41 10 57 0 7 -4 14 -3 18 2 4 7 15 7 31 1 14 -6
23 -7 21 -2 -3 4 5 7 18 7 26 0 25 3 24 -100 0 -38 0 -74 0 -80 0 -5 0 -19 1
-30 0 -11 0 -27 0 -35 -1 -8 0 -37 0 -65 1 -27 1 -54 0 -60 -1 -5 -1 -28 -1
-50 1 -22 1 -46 1 -52 0 -7 0 -19 0 -25 0 -7 0 -33 1 -58 0 -25 0 -49 -1 -55
-1 -5 -1 -30 -1 -55 2 -45 2 -53 0 -102 0 -28 -9 -30 -60 -10 -15 6 -30 8 -33
5 -3 -3 -12 0 -21 7 -8 7 -15 9 -15 4 0 -4 -5 -3 -12 4 -7 7 -19 12 -28 12
-28 0 -177 81 -249 135 -42 32 -171 162 -171 173 0 6 -4 12 -9 12 -29 0 -153
247 -168 334 -2 16 -8 39 -12 50 -13 33 -3 46 25 36 13 -5 24 -6 24 -2z m2620
-172 c14 -4 37 -8 52 -11 15 -3 64 -24 109 -47 103 -53 211 -157 261 -248 63
-114 81 -182 83 -305 1 -60 -2 -120 -6 -133 -5 -13 -11 -37 -14 -55 -7 -40
-48 -130 -83 -182 -75 -113 -248 -240 -352 -259 -14 -2 -25 -5 -25 -6 0 -4
-110 -22 -130 -21 -97 4 -184 17 -224 33 -14 6 -31 12 -38 14 -59 12 -273 178
-273 212 0 6 -3 12 -7 12 -11 0 -57 83 -82 149 -18 43 -34 116 -43 186 -2 24
16 190 22 190 1 0 3 10 5 21 3 12 10 34 16 50 7 16 13 31 13 34 1 3 16 31 35
63 57 100 206 235 278 253 13 4 23 10 23 14 0 4 12 10 28 13 15 4 54 13 87 21
58 14 210 15 265 2z m-5412 -319 c2 -20 4 -101 2 -112 -1 -5 -1 -30 -1 -55 1
-25 2 -51 1 -57 0 -7 0 -21 0 -30 0 -10 0 -31 -1 -48 0 -46 0 -49 1 -70 0 -11
0 -27 0 -35 -1 -8 -1 -24 0 -35 0 -11 0 -27 0 -35 -1 -8 -1 -24 0 -35 0 -11 0
-27 0 -35 -1 -8 0 -37 0 -65 1 -27 1 -52 0 -55 -6 -20 -3 -100 3 -100 5 0 5
-4 2 -10 -5 -8 -70 -7 -115 3 -63 13 -145 82 -177 147 -27 55 -27 55 -27 245
-1 177 0 181 26 231 15 28 40 65 57 82 38 38 111 73 156 76 19 2 38 5 41 9 9
8 30 -2 32 -16z m3962 10 c0 -4 8 -4 17 2 11 6 24 6 35 0 10 -5 18 -6 18 -2 0
4 23 8 50 8 28 0 50 -3 50 -7 0 -4 7 -5 16 -1 14 5 16 0 12 -30 -2 -21 0 -37
4 -37 5 0 5 -8 0 -17 -5 -10 -6 -27 -2 -38 4 -11 4 -34 -1 -52 -4 -18 -3 -36
2 -39 5 -3 5 -13 -1 -23 -5 -10 -7 -21 -4 -24 7 -7 11 -97 4 -97 -7 0 -4 -89
3 -97 4 -3 2 -13 -3 -23 -5 -10 -7 -20 -4 -23 8 -7 11 -97 4 -97 -7 0 -3 -77
5 -89 3 -5 1 -12 -4 -15 -5 -4 -6 -19 -2 -34 9 -34 3 -65 -12 -59 -7 2 -21 1
-32 -3 -11 -4 -32 -4 -47 1 -16 4 -28 4 -28 -1 0 -6 -10 -6 -25 0 -15 6 -26 6
-30 0 -4 -6 -13 -7 -23 -1 -9 5 -26 5 -37 1 -11 -4 -29 -4 -40 0 -11 4 -25 5
-32 3 -9 -3 -12 86 -12 394 0 219 4 400 9 403 13 8 110 6 110 -3z m2497 0 c7
-4 14 -3 18 2 3 6 15 7 28 2 12 -5 31 -5 42 -1 11 4 30 3 43 -1 13 -5 21 -6
19 -1 -3 4 10 7 29 7 19 0 34 -4 34 -8 0 -5 5 -5 11 -2 15 10 69 13 74 4 3 -3
23 -3 45 1 23 4 40 3 40 -2 0 -5 7 -5 17 1 11 6 24 6 35 0 10 -5 18 -6 18 -2
0 4 23 8 50 8 28 0 50 -4 50 -8 0 -4 8 -4 17 2 11 6 24 6 35 0 10 -5 18 -6 18
-2 0 10 62 9 78 -1 6 -3 13 -2 17 3 4 7 15 7 31 1 14 -6 23 -7 21 -2 -3 4 17
7 44 7 27 0 49 -4 49 -8 0 -4 8 -4 17 2 11 6 24 6 35 0 10 -5 18 -6 18 -1 0 9
61 8 78 -2 7 -4 12 -3 12 3 0 7 8 7 23 2 13 -5 30 -5 37 -1 8 5 22 4 31 -1 11
-6 20 -5 24 1 4 6 15 6 31 0 14 -6 23 -7 21 -2 -8 11 81 4 152 -12 32 -7 100
-52 129 -85 12 -14 32 -46 45 -71 20 -42 22 -59 22 -230 0 -172 -2 -188 -23
-231 -46 -93 -138 -159 -229 -163 -13 -1 -23 -5 -23 -9 0 -4 -8 -4 -17 2 -11
6 -24 6 -35 0 -10 -6 -19 -5 -23 1 -3 5 -15 6 -29 0 -12 -4 -29 -4 -36 0 -8 5
-22 4 -31 -1 -10 -5 -20 -6 -22 -2 -6 10 -129 9 -144 0 -7 -4 -14 -4 -17 1 -5
9 -47 9 -63 -1 -7 -4 -14 -4 -17 1 -5 9 -47 9 -63 -1 -7 -4 -14 -4 -17 1 -5 9
-47 9 -63 -1 -7 -4 -14 -4 -17 1 -5 9 -47 9 -63 -1 -7 -4 -14 -4 -17 1 -5 9
-47 9 -63 -1 -7 -4 -14 -4 -17 1 -5 9 -47 9 -63 -1 -7 -4 -14 -4 -17 1 -3 6
-61 8 -61 2 0 -1 -17 -2 -38 -3 -20 -1 -37 1 -37 5 0 4 -13 3 -30 -2 -17 -5
-30 -5 -30 0 0 5 -12 5 -27 1 -16 -4 -40 -4 -55 0 -16 4 -30 3 -34 -2 -3 -5
-11 -6 -17 -2 -16 9 -46 10 -74 1 -12 -4 -25 -4 -27 1 -3 5 -17 6 -31 4 -23
-5 -25 -3 -21 26 2 17 0 31 -5 31 -5 0 -4 11 1 25 6 15 6 25 0 25 -5 0 -5 12
0 29 4 15 4 34 0 42 -5 7 -6 17 -3 23 8 13 10 67 2 72 -3 2 -3 24 1 48 4 25 3
51 -1 57 -4 7 -4 22 1 34 4 11 4 28 0 36 -5 8 -5 21 0 29 5 8 5 22 -1 32 -5
10 -6 18 -1 18 9 0 8 53 -3 69 -3 6 -3 11 2 11 7 0 9 52 3 70 -2 5 0 97 2 115
1 12 38 13 55 2z m-2938 -672 c1 -24 2 -41 1 -67 -1 -7 0 -31 1 -53 0 -22 0
-44 -1 -50 -1 -5 -1 -28 -1 -50 1 -22 1 -46 1 -52 0 -7 0 -19 0 -25 0 -7 0
-33 1 -58 0 -25 0 -49 -1 -55 -2 -9 -2 -27 0 -80 0 -11 0 -27 0 -35 -1 -8 0
-37 0 -65 1 -27 1 -54 0 -60 -5 -28 -4 -62 2 -82 6 -19 3 -24 -18 -29 -14 -4
-28 -4 -31 0 -3 3 -12 1 -20 -5 -7 -6 -13 -7 -13 -2 0 10 -52 9 -69 -2 -6 -3
-11 -2 -11 2 0 10 -53 9 -69 -2 -6 -3 -11 -2 -11 2 0 10 -53 9 -69 -2 -6 -3
-11 -2 -11 2 0 10 -53 9 -69 -2 -6 -3 -11 -2 -11 2 0 10 -53 9 -69 -2 -6 -3
-11 -2 -11 2 0 5 -15 8 -32 6 -44 -5 -48 -5 -83 -4 -33 1 -44 1 -128 1 l-59 0
6 37 c9 64 13 78 46 159 44 112 111 214 199 305 71 75 177 159 199 159 6 0 12
4 14 9 4 11 149 79 185 86 22 4 124 31 129 34 1 1 2 -10 3 -24z m-3109 2 c124
-28 295 -124 407 -228 83 -77 173 -202 214 -296 34 -78 69 -185 63 -194 -3 -5
0 -17 5 -28 9 -16 7 -19 -19 -23 -17 -3 -30 -2 -30 2 0 3 -12 5 -27 4 -47 -4
-76 -5 -141 -2 -34 2 -62 -1 -62 -5 0 -4 -8 -4 -17 0 -10 5 -31 7 -48 6 -37
-4 -37 -4 -113 -1 -34 2 -62 -1 -62 -5 0 -4 -8 -4 -17 0 -10 5 -31 7 -48 6
-41 -4 -46 -4 -82 0 -18 2 -33 0 -33 -5 0 -4 -7 -5 -16 -1 -9 3 -25 6 -36 7
-19 1 -47 46 -29 46 9 0 5 55 -4 71 -4 5 -3 9 2 9 7 0 9 52 3 70 -2 7 -1 86 3
133 1 21 -1 43 -4 49 -4 6 -4 21 1 33 5 12 4 28 0 35 -5 8 -4 22 1 31 6 11 5
20 -1 24 -5 3 -6 13 -3 22 8 21 8 81 0 89 -3 3 -2 16 3 29 5 13 6 26 3 29 -9
8 -9 67 -1 72 4 3 4 12 1 21 -5 14 -1 15 33 10 21 -3 46 -8 54 -10z m3636
-448 c8 8 98 0 108 -9 5 -5 8 -24 7 -42 -2 -40 -2 -41 1 -101 2 -26 1 -47 -2
-47 -7 0 -4 -89 3 -97 4 -3 2 -13 -3 -23 -5 -10 -7 -20 -4 -23 7 -7 11 -97 4
-97 -7 0 -4 -89 3 -97 4 -3 2 -13 -3 -23 -5 -10 -6 -20 -3 -24 7 -7 6 -167 -2
-174 -3 -3 0 -11 6 -19 6 -7 10 -13 8 -14 -2 0 -13 -2 -24 -5 -37 -7 -115 -9
-115 -2 0 4 -13 3 -30 -2 -17 -5 -30 -5 -30 0 0 5 -13 5 -29 0 -15 -4 -34 -4
-42 0 -7 5 -20 5 -30 0 -9 -5 -19 -7 -22 -3 -9 9 -138 9 -144 0 -2 -4 -9 -4
-15 -1 -16 10 -68 11 -68 1 0 -5 -5 -5 -12 -1 -17 10 -58 11 -64 2 -3 -5 -10
-5 -16 -2 -13 8 -68 11 -68 4 0 -3 -16 -5 -35 -5 -19 0 -35 3 -35 7 0 4 -13 3
-30 -2 -17 -5 -30 -5 -30 0 0 5 -13 5 -29 0 -15 -4 -34 -4 -42 0 -7 5 -20 5
-30 0 -9 -5 -19 -7 -22 -3 -9 9 -138 9 -144 0 -2 -4 -10 -4 -16 0 -10 6 -52 8
-59 3 -7 -4 -78 -4 -78 0 0 3 -11 5 -25 5 -14 0 -25 -3 -25 -7 0 -4 -11 -3
-25 2 -15 6 -26 6 -30 0 -4 -6 -13 -7 -24 -1 -9 5 -23 6 -31 1 -7 -4 -19 -6
-26 -3 -21 8 -136 9 -141 0 -2 -4 -9 -4 -15 -1 -13 8 -68 11 -68 4 0 -3 -16
-5 -35 -5 -19 0 -35 3 -35 7 0 4 -13 3 -30 -2 -17 -5 -30 -5 -30 0 0 5 -13 5
-29 0 -15 -4 -34 -4 -42 0 -7 5 -20 5 -30 0 -9 -5 -19 -7 -22 -3 -9 9 -138 9
-144 0 -2 -4 -10 -4 -16 0 -10 6 -52 8 -59 3 -7 -4 -78 -4 -78 0 0 3 -11 5
-25 5 -14 0 -25 -3 -25 -7 0 -4 -11 -3 -25 2 -15 6 -26 6 -30 0 -4 -6 -13 -7
-24 -1 -9 5 -23 6 -30 1 -8 -4 -26 -4 -42 0 -15 5 -29 7 -31 5 -5 -5 -65 -7
-110 -3 -21 2 -38 0 -38 -4 0 -4 -10 -4 -23 1 -14 5 -30 5 -40 0 -11 -7 -17
-6 -17 0 0 6 -11 6 -30 1 -16 -5 -30 -5 -30 -2 0 4 -19 6 -42 4 -49 -4 -51 -4
-100 0 -21 2 -38 0 -38 -4 0 -4 -10 -4 -23 1 -14 5 -30 5 -40 0 -11 -7 -17 -6
-17 0 0 6 -11 6 -30 1 -16 -5 -30 -5 -30 -1 0 7 -86 5 -107 -4 -7 -2 -13 -1
-13 3 0 4 -11 7 -25 7 -14 0 -25 -3 -25 -7 0 -4 -11 -3 -25 2 -15 6 -26 6 -30
0 -4 -6 -13 -7 -24 -1 -9 5 -23 6 -31 1 -7 -4 -19 -6 -26 -3 -21 8 -136 9
-141 0 -2 -4 -9 -4 -15 -1 -13 8 -68 11 -68 4 0 -3 -16 -5 -35 -5 -19 0 -35 3
-35 7 0 4 -13 3 -30 -2 -17 -5 -30 -5 -30 0 0 5 -13 5 -29 0 -15 -4 -34 -4
-42 0 -7 5 -20 5 -30 0 -9 -5 -19 -7 -22 -3 -9 9 -138 9 -144 0 -2 -4 -9 -4
-16 0 -15 9 -57 11 -63 2 -2 -3 -22 -3 -44 1 -22 4 -40 4 -40 -1 0 -5 -6 -6
-14 -3 -8 3 -34 7 -58 8 -118 8 -218 88 -257 206 -3 8 -5 96 -5 195 -1 166 1
183 21 225 48 96 142 162 235 164 52 1 53 0 53 -26 -1 -16 3 -28 7 -28 5 0 4
-9 -2 -19 -5 -11 -6 -22 -2 -25 5 -3 6 -25 2 -49 -3 -25 -3 -53 1 -64 4 -11 3
-26 -1 -33 -5 -7 -5 -23 0 -35 5 -12 5 -28 0 -35 -5 -7 -5 -23 0 -35 5 -12 5
-28 0 -35 -4 -7 -6 -19 -3 -27 3 -7 6 -35 8 -61 1 -26 3 -52 4 -58 0 -6 15
-27 31 -46 26 -31 54 -46 87 -49 5 0 14 -5 20 -11 9 -7 13 -7 13 1 0 7 8 8 25
1 14 -5 25 -6 25 -2 0 4 25 7 55 7 30 0 55 -3 55 -7 0 -4 11 -3 25 2 16 6 26
6 31 -1 4 -6 11 -6 20 2 10 8 14 8 14 0 0 -7 8 -8 23 -2 13 5 30 5 39 0 10 -6
19 -6 23 0 4 7 15 7 30 1 14 -5 25 -6 25 -2 0 4 28 6 62 5 35 -1 63 -2 63 -3
0 -6 58 -4 67 1 7 4 20 3 30 -2 10 -5 18 -6 18 -2 0 10 47 10 56 0 4 -4 12 -4
17 0 16 10 57 10 57 0 0 -4 8 -4 17 2 11 6 24 6 35 0 10 -5 18 -6 18 -2 0 10
104 8 119 -1 6 -4 11 -4 11 1 0 9 102 9 116 0 6 -3 16 -2 24 3 8 5 21 5 31 -1
11 -6 20 -5 24 1 4 6 15 6 31 0 14 -6 23 -7 21 -2 -6 8 45 8 59 -1 6 -3 16 -2
24 3 8 5 21 5 31 0 9 -5 19 -6 23 -3 7 8 162 7 174 -1 4 -2 14 -1 22 4 8 5 22
5 32 -1 10 -5 18 -6 18 -2 0 10 47 10 56 0 4 -4 12 -4 17 0 16 10 57 10 57 0
0 -4 8 -4 17 2 11 6 24 6 35 0 10 -5 18 -6 18 -2 0 10 92 9 108 -1 6 -3 13 -2
17 3 4 7 15 7 30 1 14 -5 25 -6 25 -2 0 4 25 7 55 7 30 0 55 -3 55 -7 0 -4 11
-3 25 2 16 6 26 6 31 -1 4 -6 11 -6 20 2 10 8 14 8 14 0 0 -7 8 -8 23 -2 13 5
30 5 39 0 10 -6 19 -6 23 0 4 7 15 7 30 1 14 -5 25 -6 25 -2 0 4 28 6 62 5 35
-1 63 -2 63 -3 0 -6 58 -4 67 1 7 4 20 3 30 -2 10 -5 18 -6 18 -2 0 10 47 10
56 0 4 -4 12 -4 17 0 16 10 57 10 57 0 0 -4 8 -4 17 2 11 6 24 6 35 0 10 -5
18 -6 18 -2 0 10 94 8 109 -2 6 -3 11 -2 11 2 0 9 84 7 108 -2 6 -2 12 -1 12
3 0 4 25 7 55 7 30 0 55 -2 55 -5 0 -3 9 -6 20 -6 11 0 20 3 20 6 0 3 14 5 30
5 17 0 30 -3 30 -7 0 -4 11 -3 25 2 16 6 26 6 31 -1 4 -7 10 -7 16 -1 7 7 19
7 34 2 13 -5 24 -6 24 -2 0 8 52 8 66 0 5 -3 18 -2 29 2 11 4 30 4 42 -1 12
-5 24 -5 27 -1 2 4 23 7 45 6 23 0 41 3 41 7 0 3 8 9 18 11 23 6 71 68 78 99
2 13 4 135 4 271 l1 247 47 3 c26 2 71 0 100 -3 29 -3 55 -3 58 0z m3646 -1
c68 -1 99 -7 137 -25 62 -30 112 -79 143 -141 22 -44 23 -58 23 -232 0 -171
-2 -188 -22 -230 -43 -86 -140 -161 -213 -165 -14 -1 -30 -4 -36 -7 -5 -4 -16
-3 -24 2 -8 5 -22 5 -32 -1 -12 -6 -18 -6 -18 0 0 6 -11 6 -30 1 -16 -5 -30
-6 -30 -2 0 4 -11 7 -25 7 -14 0 -25 -3 -25 -7 0 -4 -13 -3 -29 2 -16 4 -31 7
-33 5 -5 -5 -65 -7 -110 -3 -21 2 -38 0 -38 -4 0 -4 -10 -4 -23 1 -14 5 -30 5
-40 0 -11 -7 -17 -6 -17 0 0 6 -11 6 -30 1 -16 -5 -30 -5 -30 -2 0 4 -19 6
-42 4 -49 -4 -51 -4 -100 0 -21 2 -38 0 -38 -4 0 -4 -10 -4 -23 1 -14 5 -30 5
-40 0 -11 -7 -17 -6 -17 0 0 6 -11 6 -30 1 -16 -5 -30 -5 -30 -1 0 7 -86 5
-107 -4 -7 -2 -13 0 -13 5 0 5 -13 5 -30 0 -17 -5 -30 -5 -30 0 0 5 -13 5 -30
0 -16 -5 -30 -6 -30 -2 0 4 -11 7 -25 7 -14 0 -25 -3 -25 -7 0 -4 -7 -5 -15
-2 -23 9 -145 10 -145 1 0 -5 -5 -5 -11 -2 -6 4 -8 13 -5 20 2 7 2 16 -1 19
-4 3 -6 30 -4 59 1 28 2 58 2 65 0 6 -1 22 -1 35 0 12 1 39 3 60 1 21 -1 41
-5 43 -4 3 -3 16 2 29 5 14 6 25 2 25 -4 0 -6 24 -4 52 2 48 2 73 1 111 0 6 1
31 3 55 2 24 0 46 -4 48 -4 3 -3 16 2 29 5 14 6 25 2 25 -10 0 -5 111 5 121 5
5 55 10 113 11 113 3 1025 0 1172 -4z m-2061 -163 c12 8 89 12 89 5 0 -3 23
-5 50 -6 82 -1 141 -58 145 -141 4 -63 -14 -104 -61 -139 -37 -29 -39 -29
-174 -29 -133 0 -137 1 -173 27 -47 36 -63 72 -62 134 2 79 53 139 129 151 17
3 33 7 36 10 2 2 6 -1 8 -6 2 -6 8 -9 13 -6z m-5585 -958 c3 -3 21 -1 40 3 20
5 34 4 34 -2 0 -5 7 -5 17 1 11 6 24 6 35 0 10 -5 18 -6 18 -2 0 4 23 8 50 8
28 0 50 -4 50 -8 0 -4 8 -4 17 2 10 5 26 5 41 0 13 -5 21 -6 19 -1 -6 9 67 7
82 -3 6 -3 11 -3 11 2 0 4 11 8 25 8 14 0 25 -3 25 -6 0 -3 20 -3 45 1 25 4
45 3 45 -2 0 -5 8 -5 17 1 11 6 24 6 35 0 10 -5 18 -6 18 -1 0 4 19 7 43 5 57
-5 57 -5 100 -1 20 3 37 1 37 -3 0 -4 14 -4 30 1 19 5 30 5 30 -1 0 -6 7 -6
18 -2 9 5 31 7 47 6 41 -4 46 -4 83 0 17 2 32 -1 32 -5 0 -5 8 -5 17 1 11 6
24 6 35 0 10 -5 18 -6 18 -2 0 4 20 8 45 8 25 0 45 -3 45 -7 0 -4 14 -3 30 2
17 5 30 5 30 0 0 -5 6 -7 13 -4 24 9 87 10 87 2 0 -5 8 -5 17 1 11 6 24 6 35
0 10 -5 18 -6 18 -2 0 4 20 8 45 8 25 0 45 -3 45 -7 0 -4 14 -3 30 2 17 5 30
5 30 1 0 -4 20 -5 45 -1 25 4 45 3 45 -2 0 -5 8 -5 17 1 11 6 24 6 35 0 10 -5
18 -6 18 -2 0 4 23 8 50 8 28 0 50 -4 50 -8 0 -4 8 -4 17 2 10 5 26 5 41 0 13
-5 21 -6 19 -1 -6 9 67 7 82 -3 6 -3 11 -3 11 2 0 4 11 8 25 8 14 0 25 -3 25
-6 0 -3 20 -3 45 1 25 4 45 3 45 -2 0 -5 8 -5 17 1 11 6 24 6 35 0 10 -5 18
-6 18 -2 0 4 20 8 45 8 25 0 45 -4 45 -8 0 -4 8 -4 17 2 11 6 24 6 35 0 10 -5
18 -6 18 -2 0 4 23 8 50 8 28 0 50 -4 50 -8 0 -4 8 -4 17 2 10 5 26 5 41 0 13
-5 21 -6 19 -1 -6 9 67 7 82 -3 6 -3 11 -3 11 2 0 4 11 8 25 8 14 0 25 -3 25
-6 0 -3 20 -3 45 1 25 4 45 3 45 -2 0 -5 8 -5 17 1 11 6 24 6 35 0 10 -5 18
-6 18 -1 0 4 19 7 43 5 57 -5 57 -5 100 -1 20 3 37 1 37 -3 0 -4 14 -4 30 1
19 5 30 5 30 -1 0 -6 7 -6 18 -2 18 9 69 9 78 1 3 -3 21 -2 40 2 20 5 34 4 34
-2 0 -5 7 -5 17 1 11 6 24 6 35 0 10 -5 18 -6 18 -2 0 4 23 8 50 8 28 0 50 -4
50 -8 0 -4 8 -4 17 2 10 5 26 5 41 0 13 -5 21 -6 19 -1 -6 9 67 7 82 -3 6 -3
11 -3 11 2 0 4 11 8 25 8 14 0 25 -3 25 -6 0 -3 20 -3 45 1 25 4 45 3 45 -2 0
-5 8 -5 17 1 11 6 24 6 35 0 10 -5 18 -6 18 -1 0 4 19 7 43 5 57 -5 57 -5 100
-1 20 3 37 1 37 -4 0 -5 8 -4 18 1 11 6 24 6 32 1 9 -6 17 -5 21 2 11 17 50
-28 42 -49 -4 -10 -6 -33 -5 -53 2 -33 2 -43 2 -72 -1 -7 1 -34 2 -61 2 -26 1
-47 -2 -47 -7 0 -4 -89 3 -97 4 -3 2 -13 -3 -22 -5 -10 -5 -23 -1 -30 5 -7 5
-29 1 -50 -4 -21 -3 -47 1 -58 4 -11 3 -26 -1 -33 -5 -7 -5 -23 -1 -34 4 -12
5 -32 1 -46 -4 -14 -3 -35 1 -47 5 -12 4 -25 -1 -28 -5 -3 -5 -18 0 -35 9 -32
-1 -46 -25 -36 -8 3 -17 1 -20 -4 -3 -5 -13 -6 -21 -3 -24 9 -304 9 -304 0 0
-5 -4 -6 -9 -3 -8 5 -129 10 -141 6 -14 -4 -100 -4 -100 0 0 5 -132 4 -155 0
-5 -1 -12 -2 -15 -1 -16 6 -140 5 -140 -1 0 -4 -6 -5 -14 -2 -23 9 -106 10
-106 1 0 -5 -5 -5 -11 -2 -9 6 -200 10 -224 5 -5 -1 -12 -2 -15 -1 -16 6 -110
5 -110 -1 0 -4 -6 -5 -14 -2 -21 8 -106 10 -106 2 0 -4 -6 -5 -13 -2 -24 9
-98 10 -103 2 -3 -5 -10 -6 -15 -2 -9 5 -241 9 -264 4 -5 -1 -12 -2 -15 -1
-16 6 -110 5 -110 -1 0 -4 -6 -5 -14 -2 -21 8 -106 10 -106 2 0 -4 -6 -5 -13
-2 -24 9 -98 10 -103 2 -3 -5 -10 -5 -16 -2 -12 8 -215 7 -228 -1 -6 -3 -10
-3 -10 2 0 7 -124 9 -155 3 -5 -1 -12 -2 -15 -1 -16 6 -140 5 -140 -1 0 -4 -6
-5 -14 -2 -21 8 -106 10 -106 2 0 -4 -7 -5 -15 -2 -24 9 -265 10 -265 1 0 -5
-4 -6 -9 -3 -9 6 -126 10 -146 6 -5 -1 -13 -2 -16 -2 -6 1 -85 2 -111 2 -10 0
-38 0 -63 0 -25 0 -52 0 -60 0 -8 0 -35 0 -60 0 -25 0 -52 0 -60 0 -8 0 -35 0
-60 0 -25 0 -53 0 -62 0 -10 0 -85 0 -166 1 -82 1 -151 -1 -154 -5 -3 -3 -18
1 -34 10 -16 8 -31 14 -34 14 -20 -2 -83 40 -120 82 -65 73 -74 110 -71 313 1
94 7 181 13 195 6 14 12 30 14 35 3 9 37 50 67 81 30 31 102 65 146 68 26 2
49 6 51 8 6 5 65 1 71 -5z m6387 0 c9 8 69 8 90 0 10 -4 17 -3 17 1 0 4 11 7
25 7 14 0 25 -3 25 -6 0 -3 20 -3 45 1 25 4 45 3 45 -2 0 -5 8 -4 18 1 11 6
24 6 35 0 9 -6 17 -6 17 -2 0 4 23 8 50 8 28 0 50 -4 50 -8 0 -4 8 -4 17 2 11
6 24 6 35 0 10 -5 18 -6 18 -2 0 4 20 8 45 8 25 0 45 -3 45 -7 0 -4 14 -3 30
2 17 5 30 5 30 0 0 -5 6 -7 13 -4 24 9 87 10 87 2 0 -5 8 -5 17 1 11 6 24 6
35 0 10 -5 18 -6 18 -2 0 4 20 8 45 8 25 0 45 -3 45 -7 0 -4 14 -3 30 2 17 5
30 5 30 0 0 -5 12 -5 28 -1 15 5 36 5 47 1 11 -4 23 -6 27 -3 14 8 78 9 78 1
0 -4 11 -3 25 2 16 6 26 6 31 -1 3 -5 11 -6 17 -2 12 8 27 8 97 -1 61 -8 82
-15 124 -42 52 -34 80 -67 109 -124 20 -42 22 -59 22 -230 0 -172 -2 -188 -23
-231 -52 -107 -136 -159 -268 -166 -105 -5 -95 -5 -164 -3 -30 1 -57 1 -60 0
-14 -4 -100 -4 -100 0 0 5 -132 4 -155 0 -5 -1 -12 -2 -15 -1 -16 6 -140 5
-140 -1 0 -4 -6 -5 -14 -2 -23 9 -106 10 -106 1 0 -5 -5 -5 -11 -2 -9 6 -200
10 -224 5 -5 -1 -12 -2 -15 -1 -17 7 -110 5 -110 -2 0 -5 -5 -5 -11 -2 -6 4
-46 7 -90 8 -64 0 -82 4 -89 17 -5 9 -5 22 0 30 5 8 5 19 0 25 -5 6 -5 17 0
25 5 8 5 21 0 30 -5 9 -5 22 0 30 5 8 4 22 -1 32 -5 10 -6 18 -1 18 9 0 8 53
-3 69 -3 6 -3 11 2 11 4 0 8 14 8 30 0 17 -2 30 -5 30 -5 0 -4 49 3 138 1 24
0 48 -4 54 -4 6 -4 21 1 33 5 12 4 28 0 35 -5 8 -5 21 0 29 4 8 4 25 -1 38 -5
13 -5 23 -1 23 4 0 7 14 7 30 0 17 -3 30 -6 30 -3 0 -4 11 -1 25 3 19 8 23 17
15 6 -5 15 -7 18 -3z"/>
<path d="M7439 5765 c-3 -2 -21 -7 -40 -10 -65 -9 -129 -32 -129 -46 0 -5 -6
-9 -13 -9 -27 0 -110 -113 -125 -170 -10 -38 -9 -143 1 -177 13 -43 49 -106
81 -139 24 -25 106 -77 106 -68 0 4 7 1 16 -7 15 -12 160 -18 194 -7 82 25
162 95 200 174 19 40 24 65 25 135 0 59 -4 91 -14 102 -7 10 -10 17 -6 17 4 0
2 7 -5 15 -7 8 -9 15 -6 15 4 0 1 6 -6 13 -7 8 -22 26 -33 41 -23 31 -102 89
-122 89 -7 0 -13 3 -13 6 0 6 -19 10 -70 14 -14 1 -28 5 -31 10 -3 4 -8 5 -10
2z"/>
<path d="M1555 572 c-37 -14 -125 -94 -125 -113 0 -4 -5 -20 -12 -36 -6 -15
-12 -35 -12 -43 -1 -8 -4 -19 -7 -25 -7 -12 -4 -102 5 -158 12 -75 77 -166
132 -187 35 -14 231 -12 257 1 55 30 95 88 111 162 l6 27 -57 0 c-58 0 -58 0
-75 -40 -22 -54 -70 -82 -126 -75 -54 7 -78 21 -103 62 -51 82 -41 239 20 304
58 62 179 45 211 -30 7 -17 15 -31 19 -32 3 -1 27 -2 54 -3 44 -1 53 4 47 29
-2 6 -4 17 -4 27 -2 17 -47 88 -57 88 -3 0 -14 8 -25 18 -45 42 -182 55 -259
24z"/>
<path d="M4183 583 c-5 -2 -8 -48 -7 -103 l0 -100 -27 26 c-51 49 -168 35
-217 -25 -28 -34 -53 -106 -54 -155 -2 -91 17 -148 67 -199 26 -25 34 -27 110
-27 61 0 86 4 95 15 15 18 31 20 28 3 -2 -9 15 -14 53 -16 l57 -3 1 293 1 293
-50 0 c-27 0 -53 -1 -57 -2z m-73 -243 c3 -1 7 -2 10 -2 3 0 15 -14 27 -31 44
-65 30 -187 -25 -219 -35 -21 -37 -21 -72 -3 -42 22 -62 66 -59 133 4 92 57
146 119 122z"/>
<path d="M4623 583 c-10 -4 -13 -72 -13 -294 l0 -290 58 3 c39 2 56 7 54 16
-3 17 13 15 28 -3 9 -11 33 -15 90 -15 69 0 82 3 108 25 97 81 96 289 -2 378
-46 41 -151 45 -191 7 -12 -11 -23 -20 -26 -20 -3 0 -6 41 -6 91 -1 50 -4 93
-7 96 -7 8 -76 11 -93 6z m235 -252 c61 -32 69 -180 13 -232 -46 -43 -118 -19
-136 46 -21 77 -10 140 32 179 27 25 53 27 91 7z"/>
<path d="M5805 582 c-20 -3 -20 -9 -20 -290 l0 -287 175 0 c148 0 180 3 207
18 56 30 98 126 82 187 -2 8 -22 34 -44 58 l-41 43 37 40 c32 35 36 45 33 80
-2 22 -11 54 -20 70 -14 29 -70 70 -104 77 -21 4 -281 8 -305 4z m277 -110
c52 -21 50 -93 -4 -111 -44 -14 -168 -12 -169 3 -3 22 -5 111 -3 116 4 9 148
2 176 -8z m34 -244 c23 -23 25 -74 4 -100 -17 -21 -26 -23 -116 -23 l-98 0 -1
72 -1 72 55 3 c75 4 139 -6 157 -24z"/>
<path d="M7527 578 c-9 -5 -12 -81 -12 -293 l0 -285 137 0 c157 0 217 12 260
53 36 34 76 119 80 165 1 19 6 36 10 38 5 3 6 10 2 15 -3 5 -7 32 -9 59 -9
134 -75 226 -176 246 -49 9 -278 11 -292 2z m253 -101 c62 -13 92 -69 95 -178
3 -89 -21 -158 -62 -180 -16 -8 -56 -14 -102 -14 l-76 0 -1 175 c0 96 3 182 8
191 6 13 19 16 65 13 32 -2 65 -5 73 -7z"/>
<path d="M8982 580 c-11 -8 -9 -84 3 -91 5 -4 30 -6 55 -5 l45 1 3 50 3 50
-51 0 c-29 0 -55 -2 -58 -5z"/>
<path d="M3267 543 c-4 -6 -16 -9 -28 -6 -27 7 -37 -9 -33 -57 3 -40 -12 -63
-37 -58 -10 2 -15 -9 -17 -34 -3 -36 -2 -38 25 -38 l29 0 1 -147 c0 -82 5
-160 11 -175 11 -27 14 -28 87 -28 l75 0 0 35 c0 32 -2 35 -30 35 -27 0 -30 3
-31 33 -1 33 0 213 0 235 1 7 14 12 31 12 28 0 30 2 30 39 0 37 -2 39 -24 35
-31 -5 -38 6 -39 67 0 43 -3 50 -18 46 -10 -3 -20 0 -22 6 -2 8 -5 8 -10 0z"/>
<path d="M2885 440 c-11 -4 -28 -6 -37 -4 -10 1 -18 -1 -18 -5 0 -3 -13 -12
-29 -18 -34 -12 -61 -49 -67 -92 l-5 -31 51 0 c44 0 52 3 62 25 6 14 16 25 22
26 6 0 22 3 36 5 39 7 67 -4 73 -28 6 -21 -16 -58 -32 -56 -3 0 -8 0 -11 -2
-3 -1 -22 -4 -44 -6 -55 -7 -56 -7 -100 -29 -45 -22 -66 -57 -67 -107 0 -49 5
-65 29 -93 20 -23 29 -25 101 -25 63 0 83 4 104 20 25 20 25 20 30 0 4 -17 14
-20 66 -20 65 0 67 1 50 31 -6 12 -11 80 -11 161 0 93 -4 151 -13 172 -16 38
-75 71 -125 71 -19 0 -37 3 -40 6 -3 4 -14 3 -25 -1z m90 -282 c-8 -52 -30
-77 -74 -84 -39 -6 -71 17 -71 51 0 29 21 46 78 61 73 20 74 19 67 -28z"/>
<path d="M6457 431 c-92 -32 -132 -94 -142 -221 -3 -50 23 -137 50 -165 36
-38 61 -45 155 -45 91 0 98 2 127 27 36 34 67 79 60 90 -3 5 -25 8 -50 7 -32
-1 -52 -8 -68 -23 -30 -28 -56 -39 -83 -34 -35 7 -68 38 -71 66 -2 14 -6 30
-9 36 -5 7 43 11 141 13 l148 3 1 30 c2 47 -20 120 -47 153 -25 32 -87 66
-124 68 -12 0 -26 3 -31 6 -5 3 -31 -2 -57 -11z m115 -106 c12 -14 23 -36 25
-48 3 -22 0 -22 -82 -22 -79 0 -85 1 -82 20 1 11 11 32 21 48 25 37 86 39 118
2z"/>
<path d="M1994 428 c-4 -7 -8 -303 -5 -405 1 -21 6 -23 56 -23 l55 0 1 58 c0
31 1 92 1 135 0 98 19 126 89 134 l46 5 -2 52 c-2 49 -3 51 -30 51 -20 1 -40
-11 -68 -38 l-39 -39 4 36 c4 33 2 36 -22 37 -14 0 -38 2 -53 3 -16 1 -31 -2
-33 -6z"/>
<path d="M2403 432 c-26 -4 -94 -65 -112 -99 -40 -78 -27 -228 27 -289 31 -36
58 -44 153 -44 83 0 95 2 126 26 35 26 69 81 58 92 -9 10 -85 9 -85 0 0 -5 -3
-7 -7 -5 -5 1 -18 -8 -30 -21 -29 -28 -91 -30 -121 -3 -12 10 -24 34 -27 55
l-6 36 103 1 c57 0 122 0 146 -1 l43 -2 -4 49 c-2 27 -7 55 -11 61 -4 7 -4 12
-1 12 13 0 -39 79 -64 98 -48 35 -114 47 -188 34z m116 -99 c11 -10 24 -32 27
-48 l6 -31 -81 0 c-58 1 -82 4 -86 14 -5 14 8 45 29 68 16 19 80 17 105 -3z"/>
<path d="M3531 414 c-24 -13 -51 -34 -61 -46 -44 -54 -57 -198 -25 -272 9 -21
30 -51 48 -67 30 -28 36 -29 125 -29 92 0 120 7 152 39 25 23 54 71 47 77 -3
3 -26 6 -51 7 -39 1 -51 -3 -72 -26 -19 -21 -34 -27 -67 -27 -43 0 -64 14 -82
55 -22 54 -21 55 114 56 182 2 166 -3 164 49 -2 62 -8 82 -34 122 -35 54 -82
79 -154 83 -51 3 -69 -1 -104 -21z m140 -77 c19 -14 39 -50 39 -69 0 -11 -20
-14 -86 -14 l-85 1 5 29 c13 63 78 90 127 53z"/>
<path d="M5083 432 c-22 -3 -22 -7 -6 -52 4 -8 7 -19 9 -25 1 -5 31 -88 66
-183 l62 -172 58 0 c59 0 72 9 81 57 2 10 9 31 15 46 7 16 12 35 12 43 0 8 5
14 12 14 6 0 9 3 5 6 -3 3 12 55 34 116 57 160 57 153 -5 153 -57 0 -57 0 -83
-90 -7 -27 -16 -57 -18 -65 -3 -8 -13 -43 -22 -77 -19 -65 -33 -89 -33 -57 0
11 -4 24 -9 29 -5 6 -12 24 -14 40 -3 17 -17 64 -31 105 -14 41 -26 83 -26 93
0 9 -8 17 -17 18 -10 0 -29 1 -43 2 -14 1 -35 1 -47 -1z"/>
<path d="M6807 430 c-10 -4 -13 -48 -13 -217 l0 -213 56 0 56 0 0 137 c1 156
1 161 29 184 36 30 81 31 109 2 24 -24 24 -27 23 -174 l-2 -149 58 0 59 0 -4
178 c-3 158 -5 180 -23 204 -29 40 -70 56 -133 54 -48 -2 -59 -7 -84 -34 l-28
-32 0 30 c0 22 -5 30 -17 31 -10 0 -30 2 -45 3 -15 1 -33 -1 -41 -4z"/>
<path d="M8165 426 c-53 -19 -76 -42 -90 -90 l-14 -46 61 0 c47 0 59 3 55 14
-9 22 24 43 63 41 63 -3 68 -5 73 -25 8 -32 -16 -51 -83 -65 -106 -21 -112
-24 -136 -46 -38 -35 -46 -78 -30 -146 11 -49 39 -63 124 -63 59 0 79 4 100
21 l26 20 8 -20 c6 -18 16 -21 68 -21 60 0 70 6 48 28 -7 7 -12 63 -12 166 -1
140 -3 158 -22 183 -11 15 -34 34 -50 42 -36 18 -149 22 -189 7z m150 -260
c-5 -70 -59 -109 -117 -85 -23 9 -28 17 -28 45 0 36 15 48 85 63 58 13 62 12
60 -23z"/>
<path d="M8518 432 c-16 -2 -28 -5 -28 -7 0 -2 14 -41 31 -87 17 -46 32 -90
34 -98 2 -8 21 -64 43 -125 l39 -110 61 -3 60 -3 18 53 c9 29 32 94 50 145 17
50 30 94 26 97 -3 3 0 6 6 6 7 0 11 3 10 8 -1 4 4 25 11 47 26 81 26 79 -9 78
-94 -3 -81 14 -124 -153 -22 -83 -43 -150 -46 -150 -4 0 -40 115 -64 205 -23
89 -26 93 -59 96 -17 2 -44 3 -59 1z"/>
<path d="M8987 428 c-8 -5 -12 -70 -12 -218 l0 -210 57 0 56 0 0 218 1 217
-46 0 c-25 0 -50 -3 -56 -7z"/>
<path d="M9282 427 c-39 -15 -92 -62 -93 -85 -1 -10 -3 -28 -4 -42 -6 -48 21
-85 78 -105 28 -11 58 -21 65 -22 68 -16 122 -42 122 -59 0 -24 -44 -43 -93
-42 -40 0 -51 5 -67 28 -16 23 -26 27 -70 26 -55 0 -59 -5 -36 -59 24 -57 50
-67 186 -67 l120 0 26 29 c30 34 56 81 45 81 -4 0 -6 14 -5 30 4 59 -62 103
-185 126 -91 17 -103 72 -18 81 41 5 49 2 74 -24 23 -24 36 -29 73 -29 52 1
57 12 27 67 -18 34 -47 56 -87 66 -39 10 -128 10 -158 0z"/>
</g>
</svg>
